<?xml version="1.0" standalone="no"?>
<!DOCTYPE svg PUBLIC "-//W3C//DTD SVG 1.1//EN" "http://www.w3.org/Graphics/SVG/1.1/DTD/svg11.dtd" >
<svg xmlns="http://www.w3.org/2000/svg">
<metadata></metadata>
<defs>
<font id="bebas_neuebold" horiz-adv-x="811" >
<font-face units-per-em="2048" ascent="1536" descent="-512" />
<missing-glyph horiz-adv-x="317" />
<glyph horiz-adv-x="0" />
<glyph horiz-adv-x="0" />
<glyph unicode=" "  horiz-adv-x="317" />
<glyph unicode="&#x09;" horiz-adv-x="317" />
<glyph unicode="&#xa0;" horiz-adv-x="317" />
<glyph unicode="!" horiz-adv-x="389" d="M82 836v598h225v-598l-28 -519h-168zM86 0v217h217v-217h-217z" />
<glyph unicode="&#x22;" horiz-adv-x="665" d="M82 1434h217l-33 -422h-153zM367 1434h217l-33 -422h-154z" />
<glyph unicode="#" horiz-adv-x="839" d="M31 410l16 159h100l39 375h-102l16 160h103l35 330h184l-35 -330h133l35 330h184l-34 -330h104l-16 -160h-105l-39 -375h105l-17 -159h-104l-43 -410h-184l43 410h-134l-43 -410h-184l43 410h-100zM332 569h133l39 375h-133z" />
<glyph unicode="$" d="M70 365v98h213v-113q0 -78 31.5 -108.5t84.5 -30.5t85 30.5t32 108.5q0 74 -32.5 127t-82 99.5t-105.5 90.5t-105.5 99t-82 128t-32.5 175q0 145 59.5 234.5t177.5 115.5v107h185v-107q121 -25 181 -113.5t60 -236.5v-45h-213v59q0 78 -29.5 110t-82.5 32t-83 -32 t-30 -110q0 -74 33 -127t82 -99t105.5 -90t105.5 -99.5t81.5 -128t32.5 -174.5q0 -147 -61.5 -237.5t-181.5 -115.5v-104h-185v104q-123 25 -183 115t-60 238z" />
<glyph unicode="%" horiz-adv-x="1284" d="M70 743v471q0 111 55 170.5t162 59.5q106 0 161.5 -59.5t55.5 -170.5v-471q0 -111 -55.5 -170t-161.5 -59t-161.5 59.5t-55.5 169.5zM213 733q0 -90 74 -90q35 0 54 21.5t19 68.5v492q0 47 -19 68.5t-54 21.5q-74 0 -74 -90v-492zM287 0l565 1434h133l-565 -1434h-133z M780 219v471q0 111 55.5 170.5t161.5 59.5t161.5 -59.5t55.5 -170.5v-471q0 -111 -55 -170t-162 -59q-106 0 -161.5 59.5t-55.5 169.5zM924 209q0 -90 73 -90q35 0 54.5 21.5t19.5 68.5v491q0 47 -19.5 69t-54.5 22q-74 0 -73 -91v-491z" />
<glyph unicode="&#x26;" horiz-adv-x="847" d="M84 311v146q0 111 36 187.5t120 113.5q-156 66 -156 295v26q0 174 83 264.5t253 90.5h258v-205h-254q-53 0 -84 -31t-31 -108v-89q0 -86 36 -118.5t99 -32.5h99v160h225v-160h59v-205h-59v-471q0 -53 4 -93t21 -81h-230q-8 23 -12 44.5t-8 68.5q-59 -129 -209 -129 q-125 0 -187.5 84t-62.5 243zM309 330q0 -78 32 -110t85 -32q51 0 82 29t35 96v332h-86q-78 0 -113 -41t-35 -141v-133z" />
<glyph unicode="'" horiz-adv-x="368" d="M76 1434h217l-33 -422h-154z" />
<glyph unicode="(" horiz-adv-x="514" d="M96 313v807q0 86 17.5 145.5t55.5 97.5t98.5 54.5t144.5 16.5h69v-185h-55q-53 0 -78.5 -25.5t-25.5 -103.5v-807q0 -78 25.5 -103.5t78.5 -25.5h55v-184h-69q-84 0 -144.5 16.5t-98.5 54.5t-55.5 97t-17.5 145z" />
<glyph unicode=")" horiz-adv-x="514" d="M33 0v184h55q53 0 79 26t26 103v807q0 78 -26 103.5t-79 25.5h-55v185h69q168 0 242 -71t74 -243v-807q0 -172 -74 -242.5t-242 -70.5h-69z" />
<glyph unicode="*" d="M4 1075l57 174l306 -153l-54 338h185l-54 -338l306 153l57 -174l-336 -57l240 -240l-148 -108l-157 303l-158 -303l-148 108l240 240z" />
<glyph unicode="+" d="M51 637v160h275v276h159v-276h275v-160h-275v-281h-159v281h-275z" />
<glyph unicode="," horiz-adv-x="380" d="M82 0v217h217v-194l-98 -228h-92l59 205h-86z" />
<glyph unicode="-" horiz-adv-x="552" d="M72 614v205h409v-205h-409z" />
<glyph unicode="." horiz-adv-x="380" d="M82 0v217h217v-217h-217z" />
<glyph unicode="/" horiz-adv-x="780" d="M10 0l565 1434h195l-565 -1434h-195z" />
<glyph unicode="0" d="M63 344v746q0 174 88.5 267t254.5 93t254 -93t88 -267v-746q0 -174 -88.5 -267t-253.5 -93q-166 0 -254.5 93t-88.5 267zM289 330q0 -78 31.5 -110t85.5 -32q53 0 84.5 32t31.5 110v774q0 78 -31.5 109.5t-84.5 31.5t-85 -31.5t-32 -109.5v-774z" />
<glyph unicode="1" d="M221 1094v159q66 0 108 14.5t68.5 39t43 57.5t28.5 70h152v-1434h-226v1094h-174z" />
<glyph unicode="2" d="M82 0v176q0 104 32.5 184t83 146.5t107.5 125t107.5 124t83 143.5t32.5 182q0 96 -31.5 130t-84.5 34t-85 -31.5t-32 -109.5v-154h-213v140q0 174 85 267t251 93t251 -93t85 -267q0 -113 -33 -204t-83 -166t-108.5 -138.5t-108.5 -121t-83 -111.5t-33 -113q0 -20 2 -31 h426v-205h-651z" />
<glyph unicode="3" d="M70 344v119h213v-133q0 -78 31.5 -110t84.5 -32t85 33t32 129v113q0 100 -35 141t-112 41h-76v205h88q63 0 99 32.5t36 118.5v80q0 96 -31.5 130t-85.5 34q-53 0 -84.5 -31.5t-31.5 -109.5v-92h-213v78q0 174 85 267t251 93t250.5 -93t84.5 -267v-37q0 -229 -157 -295 q86 -37 121.5 -114t35.5 -187v-113q0 -174 -85 -267t-250 -93q-166 0 -251 93t-85 267z" />
<glyph unicode="4" d="M29 260v205l409 969h246v-969h107v-205h-107v-260h-221v260h-434zM236 465h227v539z" />
<glyph unicode="5" d="M72 344v119h213v-133q0 -78 31.5 -109t84.5 -31t85 31t32 109v315q0 78 -31.5 109.5t-85.5 31.5q-53 0 -84.5 -31.5t-31.5 -109.5v-43h-213l41 832h594v-205h-392l-18 -342q63 104 197 104q125 0 187 -84t62 -243v-320q0 -174 -85 -267t-250 -93q-166 0 -251 93t-85 267z " />
<glyph unicode="6" d="M68 344v733q0 182 84 277.5t260 95.5q166 0 251 -93t85 -267v-37h-213v51q0 78 -32 109.5t-85 31.5q-59 0 -92 -37t-33 -139v-262q59 127 209 127q125 0 187.5 -84t62.5 -244v-262q0 -174 -88.5 -267t-253.5 -93q-166 0 -254 93t-88 267zM293 330q0 -78 31.5 -109 t85.5 -31q53 0 84.5 31t31.5 109v258q0 78 -31.5 109.5t-84.5 31.5t-85 -31.5t-32 -109.5v-258z" />
<glyph unicode="7" d="M68 1229v205h675v-197l-331 -1237h-226l330 1229h-448z" />
<glyph unicode="8" d="M53 344v113q0 104 33 181t107 118q-139 76 -140 288v46q0 174 90 267t263 93q172 0 262 -93t90 -267v-46q0 -211 -140 -288q74 -41 107 -118t33 -181v-113q0 -174 -90 -267t-262 -93t-262.5 93t-90.5 267zM279 350q0 -96 36.5 -129t90.5 -33q53 0 88.5 33t37.5 129v133 q0 86 -33.5 124t-92.5 38t-93 -38t-34 -124v-133zM279 1001q0 -86 35.5 -118.5t91.5 -32.5q53 0 89.5 32.5t36.5 118.5v80q0 96 -36.5 130t-89.5 34t-90 -33.5t-37 -130.5v-80z" />
<glyph unicode="9" d="M59 827v263q0 174 88.5 267t253.5 93q166 0 254 -93t88 -267v-734q0 -182 -84 -277t-260 -95q-166 0 -251 93t-85 267v37h213v-51q0 -78 32 -110t85 -32q59 0 92 37t33 140v262q-59 -127 -209 -127q-125 0 -187.5 84t-62.5 243zM285 846q0 -78 31.5 -109.5t84.5 -31.5 t85 31.5t32 109.5v258q0 78 -31.5 108.5t-85.5 30.5q-53 0 -84.5 -30.5t-31.5 -108.5v-258z" />
<glyph unicode=":" horiz-adv-x="380" d="M82 0v217h217v-217h-217zM82 780v217h217v-217h-217z" />
<glyph unicode=";" horiz-adv-x="380" d="M82 0v217h217v-194l-98 -228h-92l59 205h-86zM82 780v217h217v-217h-217z" />
<glyph unicode="&#x3c;" d="M61 637v160l668 245v-161l-459 -164l459 -164v-162z" />
<glyph unicode="=" d="M72 471v160h667v-160h-667zM72 803v160h667v-160h-667z" />
<glyph unicode="&#x3e;" d="M82 391v162l459 164l-459 164v161l668 -245v-160z" />
<glyph unicode="?" horiz-adv-x="737" d="M41 948v142q0 174 83 267t249 93t249 -93t83 -267q0 -94 -19.5 -163t-49.5 -124t-64.5 -101.5t-64.5 -91.5t-49.5 -96t-19.5 -117q0 -45 8 -80h-200q-12 37 -13 89q0 78 18.5 135t45.5 105t59.5 92t59 95.5t45 116t18.5 154.5q0 78 -29.5 109.5t-82.5 31.5t-83 -31.5 t-30 -109.5v-156h-213zM236 0v217h217v-217h-217z" />
<glyph unicode="@" horiz-adv-x="1411" d="M49 594q0 190 47 357t141.5 293t235.5 199t332 73q162 0 271.5 -47.5t175 -129.5t94 -191.5t28.5 -234.5q0 -188 -40 -314t-100 -201.5t-130 -106.5t-129 -31q-78 0 -126 32t-54 103q-63 -129 -199 -123q-109 4 -155 85t-29 231l22 207q16 152 78.5 229.5t171.5 73.5 q127 -2 168 -127l12 119h197l-62 -592q-6 -51 41 -52q43 0 74 43t51.5 111t29.5 149.5t9 159.5q0 96 -23.5 176t-73.5 136.5t-127 88t-183 31.5q-137 0 -240.5 -53t-173.5 -151.5t-105.5 -238.5t-35.5 -314q0 -248 116.5 -391.5t360.5 -143.5q57 0 110.5 6t104.5 21.5 t103.5 43t105.5 68.5l-17 -196q-102 -68 -203.5 -91.5t-215.5 -23.5q-172 0 -297 52.5t-205 147.5t-118 226t-38 291zM610 598q-8 -72 16.5 -102.5t71.5 -32.5t77 27.5t38 101.5l21 194q6 59 -21 87t-68 28q-47 2 -77.5 -27.5t-38.5 -101.5z" />
<glyph unicode="A" horiz-adv-x="833" d="M23 0l229 1434h330l229 -1434h-227l-39 260h-277l-39 -260h-206zM297 455h217l-108 725z" />
<glyph unicode="B" horiz-adv-x="831" d="M82 0v1434h340q176 0 255 -82t79 -248v-51q0 -111 -35 -182.5t-111 -106.5q92 -35 130 -114t38 -193v-117q0 -166 -86 -253t-256 -87h-354zM307 205h129q57 0 87 30.5t30 110.5v125q0 100 -34 137t-111 37h-101v-440zM307 850h88q63 0 99 32.5t36 118.5v80 q0 78 -27.5 113t-86.5 35h-109v-379z" />
<glyph unicode="C" horiz-adv-x="790" d="M63 344v746q0 174 85 267t251 93t251 -93t85 -267v-140h-213v154q0 78 -31.5 109.5t-84.5 31.5t-85 -31.5t-32 -109.5v-774q0 -78 31.5 -109t85.5 -31q53 0 84.5 31t31.5 109v205h213v-191q0 -174 -85 -267t-251 -93t-251 93t-85 267z" />
<glyph unicode="D" horiz-adv-x="835" d="M82 0v1434h356q170 0 253 -90.5t83 -264.5v-725q0 -174 -83 -264t-253 -90h-356zM307 205h127q53 0 84 30.5t31 108.5v746q0 78 -31 108.5t-84 30.5h-127v-1024z" />
<glyph unicode="E" horiz-adv-x="753" d="M82 0v1434h614v-205h-389v-400h309v-204h-309v-420h389v-205h-614z" />
<glyph unicode="F" horiz-adv-x="704" d="M82 0v1434h596v-205h-371v-432h291v-205h-291v-592h-225z" />
<glyph unicode="G" horiz-adv-x="798" d="M63 344v746q0 174 85 267t251 93t251 -93t85 -267v-140h-213v154q0 78 -31.5 109.5t-84.5 31.5t-85 -31.5t-32 -109.5v-774q0 -78 31.5 -109t85.5 -31q53 0 84.5 31t31.5 109v264h-102v205h315v-455q0 -174 -85 -267t-251 -93t-251 93t-85 267z" />
<glyph unicode="H" horiz-adv-x="874" d="M82 0v1434h225v-615h256v615h230v-1434h-230v614h-256v-614h-225z" />
<glyph unicode="I" horiz-adv-x="389" d="M82 0v1434h225v-1434h-225z" />
<glyph unicode="J" horiz-adv-x="524" d="M20 0v205q18 -2 39 -2h39q53 0 91 26.5t38 110.5v1094h226v-1078q0 -109 -27 -178t-72 -109t-103 -56.5t-122 -16.5h-55.5t-53.5 4z" />
<glyph unicode="K" horiz-adv-x="847" d="M82 0v1434h225v-625l295 625h225l-313 -639l313 -795h-231l-219 571l-70 -131v-440h-225z" />
<glyph unicode="L" horiz-adv-x="694" d="M82 0v1434h225v-1229h371v-205h-596z" />
<glyph unicode="M" horiz-adv-x="1107" d="M80 0v1434h313l166 -1018l154 1018h313v-1434h-213v1028l-156 -1028h-213l-168 1014v-1014h-196z" />
<glyph unicode="N" horiz-adv-x="874" d="M80 0v1434h282l232 -859v859h201v-1434h-232l-280 1038v-1038h-203z" />
<glyph unicode="O" d="M63 344v746q0 174 88.5 267t254.5 93t254 -93t88 -267v-746q0 -174 -88.5 -267t-253.5 -93q-166 0 -254.5 93t-88.5 267zM289 330q0 -78 31.5 -110t85.5 -32q53 0 84.5 32t31.5 110v774q0 78 -31.5 109.5t-84.5 31.5t-85 -31.5t-32 -109.5v-774z" />
<glyph unicode="P" horiz-adv-x="782" d="M82 0v1434h332q170 0 253 -90.5t83 -264.5v-186q0 -174 -83 -264t-253 -90h-107v-539h-225zM307 743h107q53 0 81.5 29t28.5 107v215q0 78 -28.5 106.5t-81.5 28.5h-107v-486z" />
<glyph unicode="Q" d="M63 344v746q0 174 88.5 267t254.5 93t254 -93t88 -267v-746q0 -121 -43 -201q8 -20 21 -25t42 -5h20v-201h-30q-76 0 -124 25.5t-71 72.5q-35 -12 -73.5 -19t-83.5 -7q-166 0 -254.5 93t-88.5 267zM289 330q0 -78 31.5 -110t85.5 -32q53 0 84.5 32t31.5 110v774 q0 78 -31.5 109.5t-84.5 31.5t-85 -31.5t-32 -109.5v-774z" />
<glyph unicode="R" horiz-adv-x="823" d="M82 0v1434h340q176 0 255 -82t79 -248v-113q0 -221 -148 -291q86 -35 118 -113.5t32 -191.5v-221q0 -53 4 -93t20 -81h-229q-4 14 -8 26.5t-7 31t-4.5 47t-1.5 71.5v225q0 100 -34.5 141.5t-112.5 41.5h-78v-584h-225zM307 788h88q63 0 99 33t36 119v141q0 78 -27.5 113 t-86.5 35h-109v-441z" />
<glyph unicode="S" horiz-adv-x="765" d="M47 344v88h213v-102q0 -78 32 -109t85 -31t85 31t32 109q0 74 -33 130t-82 106t-105.5 100.5t-105.5 110t-82 135.5t-33 178q0 174 83 267t249 93t249 -93t83 -267v-46h-213v60q0 78 -30 109.5t-83 31.5t-82.5 -31.5t-29.5 -109.5q0 -74 32.5 -130t81.5 -106.5 t105.5 -100.5t105.5 -109.5t82 -135.5t33 -178q0 -174 -85 -267t-251 -93t-251 93t-85 267z" />
<glyph unicode="T" horiz-adv-x="729" d="M16 1229v205h697v-205h-236v-1229h-225v1229h-236z" />
<glyph unicode="U" horiz-adv-x="815" d="M72 342v1092h225v-1106q0 -78 31.5 -109t85.5 -31q53 0 84.5 31t31.5 109v1106h213v-1092q0 -174 -85 -267t-250 -93q-166 0 -251 93t-85 267z" />
<glyph unicode="V" horiz-adv-x="823" d="M23 1434h227l172 -1170l172 1170h207l-221 -1434h-336z" />
<glyph unicode="W" horiz-adv-x="1153" d="M31 1434h219l121 -1131l108 1131h217l113 -1139l117 1139h196l-159 -1434h-299l-82 764l-82 -764h-310z" />
<glyph unicode="X" horiz-adv-x="880" d="M31 0l252 737l-236 697h234l170 -529l174 529h209l-236 -697l252 -737h-238l-184 567l-186 -567h-211z" />
<glyph unicode="Y" d="M8 1434h236l172 -654l172 654h215l-285 -959v-475h-225v475z" />
<glyph unicode="Z" horiz-adv-x="757" d="M47 0v201l428 1028h-407v205h639v-201l-428 -1028h428v-205h-660z" />
<glyph unicode="[" horiz-adv-x="514" d="M96 0v1434h373v-185h-147v-1065h147v-184h-373z" />
<glyph unicode="\" horiz-adv-x="780" d="M10 1434h195l565 -1434h-195z" />
<glyph unicode="]" horiz-adv-x="514" d="M45 0v184h148v1065h-148v185h373v-1434h-373z" />
<glyph unicode="^" d="M41 799l285 635h159l285 -635h-180l-184 430l-185 -430h-180z" />
<glyph unicode="_" horiz-adv-x="1024" d="M0 -20h1024v-164h-1024v164z" />
<glyph unicode="`" horiz-adv-x="512" d="M90 1737h232l139 -228h-162z" />
<glyph unicode="a" horiz-adv-x="833" d="M23 0l229 1434h330l229 -1434h-227l-39 260h-277l-39 -260h-206zM297 455h217l-108 725z" />
<glyph unicode="b" horiz-adv-x="831" d="M82 0v1434h340q176 0 255 -82t79 -248v-51q0 -111 -35 -182.5t-111 -106.5q92 -35 130 -114t38 -193v-117q0 -166 -86 -253t-256 -87h-354zM307 205h129q57 0 87 30.5t30 110.5v125q0 100 -34 137t-111 37h-101v-440zM307 850h88q63 0 99 32.5t36 118.5v80 q0 78 -27.5 113t-86.5 35h-109v-379z" />
<glyph unicode="c" horiz-adv-x="790" d="M63 344v746q0 174 85 267t251 93t251 -93t85 -267v-140h-213v154q0 78 -31.5 109.5t-84.5 31.5t-85 -31.5t-32 -109.5v-774q0 -78 31.5 -109t85.5 -31q53 0 84.5 31t31.5 109v205h213v-191q0 -174 -85 -267t-251 -93t-251 93t-85 267z" />
<glyph unicode="d" horiz-adv-x="835" d="M82 0v1434h356q170 0 253 -90.5t83 -264.5v-725q0 -174 -83 -264t-253 -90h-356zM307 205h127q53 0 84 30.5t31 108.5v746q0 78 -31 108.5t-84 30.5h-127v-1024z" />
<glyph unicode="e" horiz-adv-x="753" d="M82 0v1434h614v-205h-389v-400h309v-204h-309v-420h389v-205h-614z" />
<glyph unicode="f" horiz-adv-x="704" d="M82 0v1434h596v-205h-371v-432h291v-205h-291v-592h-225z" />
<glyph unicode="g" horiz-adv-x="798" d="M63 344v746q0 174 85 267t251 93t251 -93t85 -267v-140h-213v154q0 78 -31.5 109.5t-84.5 31.5t-85 -31.5t-32 -109.5v-774q0 -78 31.5 -109t85.5 -31q53 0 84.5 31t31.5 109v264h-102v205h315v-455q0 -174 -85 -267t-251 -93t-251 93t-85 267z" />
<glyph unicode="h" horiz-adv-x="874" d="M82 0v1434h225v-615h256v615h230v-1434h-230v614h-256v-614h-225z" />
<glyph unicode="i" horiz-adv-x="389" d="M82 0v1434h225v-1434h-225z" />
<glyph unicode="j" horiz-adv-x="524" d="M20 0v205q18 -2 39 -2h39q53 0 91 26.5t38 110.5v1094h226v-1078q0 -109 -27 -178t-72 -109t-103 -56.5t-122 -16.5h-55.5t-53.5 4z" />
<glyph unicode="k" horiz-adv-x="847" d="M82 0v1434h225v-625l295 625h225l-313 -639l313 -795h-231l-219 571l-70 -131v-440h-225z" />
<glyph unicode="l" horiz-adv-x="694" d="M82 0v1434h225v-1229h371v-205h-596z" />
<glyph unicode="m" horiz-adv-x="1107" d="M80 0v1434h313l166 -1018l154 1018h313v-1434h-213v1028l-156 -1028h-213l-168 1014v-1014h-196z" />
<glyph unicode="n" horiz-adv-x="874" d="M80 0v1434h282l232 -859v859h201v-1434h-232l-280 1038v-1038h-203z" />
<glyph unicode="o" d="M63 344v746q0 174 88.5 267t254.5 93t254 -93t88 -267v-746q0 -174 -88.5 -267t-253.5 -93q-166 0 -254.5 93t-88.5 267zM289 330q0 -78 31.5 -110t85.5 -32q53 0 84.5 32t31.5 110v774q0 78 -31.5 109.5t-84.5 31.5t-85 -31.5t-32 -109.5v-774z" />
<glyph unicode="p" horiz-adv-x="772" d="M82 0v1434h332q170 0 253 -90.5t83 -264.5v-186q0 -174 -83 -264t-253 -90h-107v-539h-225zM307 743h107q53 0 81.5 29t28.5 107v215q0 78 -28.5 106.5t-81.5 28.5h-107v-486z" />
<glyph unicode="q" d="M63 344v746q0 174 88.5 267t254.5 93t254 -93t88 -267v-746q0 -121 -43 -201q8 -20 21 -25t42 -5h20v-201h-30q-76 0 -124 25.5t-71 72.5q-35 -12 -73.5 -19t-83.5 -7q-166 0 -254.5 93t-88.5 267zM289 330q0 -78 31.5 -110t85.5 -32q53 0 84.5 32t31.5 110v774 q0 78 -31.5 109.5t-84.5 31.5t-85 -31.5t-32 -109.5v-774z" />
<glyph unicode="r" horiz-adv-x="823" d="M82 0v1434h340q176 0 255 -82t79 -248v-113q0 -221 -148 -291q86 -35 118 -113.5t32 -191.5v-221q0 -53 4 -93t20 -81h-229q-4 14 -8 26.5t-7 31t-4.5 47t-1.5 71.5v225q0 100 -34.5 141.5t-112.5 41.5h-78v-584h-225zM307 788h88q63 0 99 33t36 119v141q0 78 -27.5 113 t-86.5 35h-109v-441z" />
<glyph unicode="s" horiz-adv-x="765" d="M47 344v88h213v-102q0 -78 32 -109t85 -31t85 31t32 109q0 74 -33 130t-82 106t-105.5 100.5t-105.5 110t-82 135.5t-33 178q0 174 83 267t249 93t249 -93t83 -267v-46h-213v60q0 78 -30 109.5t-83 31.5t-82.5 -31.5t-29.5 -109.5q0 -74 32.5 -130t81.5 -106.5 t105.5 -100.5t105.5 -109.5t82 -135.5t33 -178q0 -174 -85 -267t-251 -93t-251 93t-85 267z" />
<glyph unicode="t" horiz-adv-x="729" d="M16 1229v205h697v-205h-236v-1229h-225v1229h-236z" />
<glyph unicode="u" horiz-adv-x="815" d="M72 342v1092h225v-1106q0 -78 31.5 -109t85.5 -31q53 0 84.5 31t31.5 109v1106h213v-1092q0 -174 -85 -267t-250 -93q-166 0 -251 93t-85 267z" />
<glyph unicode="v" horiz-adv-x="823" d="M23 1434h227l172 -1170l172 1170h207l-221 -1434h-336z" />
<glyph unicode="w" horiz-adv-x="1153" d="M31 1434h219l121 -1131l108 1131h217l113 -1139l117 1139h196l-159 -1434h-299l-82 764l-82 -764h-310z" />
<glyph unicode="x" horiz-adv-x="880" d="M31 0l252 737l-236 697h234l170 -529l174 529h209l-236 -697l252 -737h-238l-184 567l-186 -567h-211z" />
<glyph unicode="y" d="M8 1434h236l172 -654l172 654h215l-285 -959v-475h-225v475z" />
<glyph unicode="z" horiz-adv-x="757" d="M47 0v201l428 1028h-407v205h639v-201l-428 -1028h428v-205h-660z" />
<glyph unicode="{" horiz-adv-x="526" d="M23 625v184q66 0 87 25.5t25 97.5l17 274q8 117 69.5 172.5t157.5 55.5h115v-185h-33q-53 0 -79 -29.5t-30 -115.5l-10 -205q-2 -29 -8 -57.5t-20.5 -53t-40 -43t-64.5 -28.5q39 -10 64.5 -29.5t40 -44.5t20.5 -52.5t8 -55.5l10 -205q4 -86 30 -116t79 -30h33v-184h-115 q-96 0 -157.5 55.5t-69.5 171.5l-17 275q-4 72 -25.5 97.5t-86.5 25.5z" />
<glyph unicode="|" horiz-adv-x="1024" d="M430 -133v1700h184v-1700h-184z" />
<glyph unicode="}" horiz-adv-x="526" d="M33 0v184h33q53 0 78.5 30t29.5 116l10 205q2 57 28.5 109.5t104.5 72.5q-78 20 -104.5 72.5t-28.5 109.5l-10 205q-4 86 -29.5 115.5t-78.5 29.5h-33v185h114q96 0 158 -55.5t70 -172.5l16 -274q4 -72 25.5 -97.5t87.5 -25.5v-184q-66 0 -87.5 -26t-25.5 -97l-16 -275 q-8 -117 -69.5 -172t-158.5 -55h-114z" />
<glyph unicode="~" d="M16 680q37 55 69 90t60.5 56.5t57 29.5t57.5 8q41 0 80 -19.5t76 -43t70.5 -43t66.5 -19.5q35 0 61.5 26t73.5 91l107 -111q-74 -109 -130.5 -142.5t-113.5 -33.5q-41 0 -80 19.5t-76 43t-70.5 43t-66.5 19.5q-35 0 -61.5 -25.5t-73.5 -90.5z" />
<glyph unicode="&#xa1;" horiz-adv-x="389" d="M82 0v598l29 518h168l28 -518v-598h-225zM86 1217v217h217v-217h-217z" />
<glyph unicode="&#xa2;" d="M74 426v582q0 145 60.5 234t178.5 116v106h185v-104q123 -25 185 -115t62 -237v-99h-213v113q0 78 -31.5 109.5t-84.5 31.5t-85 -31.5t-32 -109.5v-610q0 -78 31.5 -109t85.5 -31q53 0 84.5 31t31.5 109v163h213v-149q0 -147 -62 -238.5t-185 -113.5v-105h-185v107 q-119 25 -179 114t-60 236z" />
<glyph unicode="&#xa3;" d="M61 0v197q80 0 135.5 61t59.5 172h-166v174h137q-18 53 -42.5 100.5t-48 101.5t-39 121.5t-15.5 162.5q0 174 83 267t249 93t248.5 -93t82.5 -267v-142h-213v156q0 78 -29.5 109.5t-82.5 31.5t-83 -31.5t-30 -109.5q0 -96 16.5 -164t38 -123t45 -105t37.5 -108h248v-174 h-233q-8 -78 -38 -133t-77 -92h387v-205h-670z" />
<glyph unicode="&#xa4;" d="M66 465l112 113q-37 61 -37 139t37 137l-112 115l88 88l114 -115q61 39 138 39q72 0 137 -39l114 115l88 -88l-114 -115q39 -66 39 -137q0 -76 -39 -137l114 -115l-88 -88l-114 112q-59 -37 -137 -36q-78 0 -140 36l-112 -112zM274 717q0 -53 39 -92t93 -39q53 0 92 39 t39 92t-39 92t-92 39t-92.5 -39t-39.5 -92z" />
<glyph unicode="&#xa5;" d="M14 1434h236l166 -633l166 633h215l-262 -879h170v-113h-187v-92h187v-112h-187v-238h-225v238h-187v112h187v92h-187v113h168z" />
<glyph unicode="&#xa6;" horiz-adv-x="1024" d="M430 -133v727h184v-727h-184zM430 840v727h184v-727h-184z" />
<glyph unicode="&#xa7;" d="M72 643q0 78 34.5 143.5t106.5 106.5q-59 39 -100 99.5t-41 166.5q0 123 84 207t247 84q166 0 249 -78t83 -201v-73h-213v43q0 55 -29.5 89t-82.5 34q-113 0 -113 -115q0 -43 32.5 -69.5t82 -50t105.5 -49.5t105.5 -67t82 -101t32.5 -155q0 -78 -35.5 -144.5 t-107.5 -106.5q59 -37 101 -98.5t42 -166.5q0 -123 -84 -207t-247 -84q-166 0 -249 78t-83 201v102h213v-71q0 -55 29.5 -89t82.5 -34q113 0 113 115q0 43 -33 69.5t-82 50t-105 49t-105.5 66.5t-82 101.5t-32.5 154.5zM287 651q0 -61 35.5 -96t89.5 -61q51 8 80.5 53 t29.5 102q0 59 -36.5 94t-90.5 62q-51 -8 -79.5 -52.5t-28.5 -101.5z" />
<glyph unicode="&#xa8;" horiz-adv-x="512" d="M2 1509v197h197v-197h-197zM313 1509v197h197v-197h-197z" />
<glyph unicode="&#xa9;" horiz-adv-x="1507" d="M41 717q0 160 54.5 294t149.5 232t226 152.5t283 54.5t282.5 -54.5t226 -152.5t149.5 -232t54 -294t-54 -294t-149.5 -232.5t-226.5 -152.5t-282 -54q-152 0 -283 54t-226 152.5t-149.5 232.5t-54.5 294zM188 717q0 -129 43 -236.5t119 -186.5t179.5 -123t224.5 -44 t224 44t179 123t119 186.5t43 236.5t-43 236.5t-119 186.5t-179.5 123t-223.5 44q-121 0 -224.5 -44t-179.5 -123t-119 -186.5t-43 -236.5zM514 516v397q0 123 57.5 188.5t173.5 65.5q117 0 174.5 -65.5t57.5 -188.5v-73h-148v86q0 53 -21.5 75.5t-57.5 22.5 q-37 0 -58.5 -22.5t-21.5 -75.5v-418q0 -53 21.5 -74.5t58.5 -21.5t58 21.5t21 74.5v123h148v-115q0 -121 -57.5 -185.5t-174.5 -64.5t-174 64.5t-57 185.5z" />
<glyph unicode="&#xaa;" horiz-adv-x="569" d="M61 446v142h435v-142h-435zM61 879v8q0 74 21.5 122t60.5 76.5t92.5 42t116.5 15.5v94q0 76 -57 76q-35 0 -52.5 -19.5t-17.5 -68.5v-47h-135v39q0 109 52.5 168t158.5 59q104 0 149.5 -59.5t45.5 -167.5v-535h-121l-8 98q-35 -109 -146 -108q-160 0 -160 207zM205 891 q0 -49 19.5 -68.5t54.5 -19.5q33 0 51 16.5t22 57.5v159q-47 -2 -76.5 -14t-45 -30.5t-20.5 -40t-5 -42.5v-18z" />
<glyph unicode="&#xab;" horiz-adv-x="727" d="M33 719l127 526h202l-124 -526l124 -559h-202zM365 719l127 526h202l-125 -526l125 -559h-202z" />
<glyph unicode="&#xac;" d="M51 637v160h709v-441h-160v281h-549z" />
<glyph unicode="&#xad;" horiz-adv-x="552" d="M72 614v205h409v-205h-409z" />
<glyph unicode="&#xae;" horiz-adv-x="1507" d="M41 717q0 160 54.5 294t149.5 232t226 152.5t283 54.5t282.5 -54.5t226 -152.5t149.5 -232t54 -294t-54 -294t-149.5 -232.5t-226.5 -152.5t-282 -54q-152 0 -283 54t-226 152.5t-149.5 232.5t-54.5 294zM188 717q0 -129 43 -236.5t119 -186.5t179.5 -123t224.5 -44 t224 44t179 123t119 186.5t43 236.5t-43 236.5t-119 186.5t-179.5 123t-223.5 44q-121 0 -224.5 -44t-179.5 -123t-119 -186.5t-43 -236.5zM528 279v876h238q121 0 176 -56.5t55 -172.5v-19q0 -156 -106 -202q59 -25 82.5 -79.5t23.5 -131.5v-95q0 -35 3.5 -63.5t15.5 -56.5 h-160q-4 10 -7 19t-4 21.5t-2 32t-1 49.5v95q0 72 -25.5 99.5t-79.5 27.5h-53v-344h-156zM684 766h64q43 0 68.5 22.5t25.5 81.5v37q0 104 -84 105h-74v-246z" />
<glyph unicode="&#xaf;" horiz-adv-x="512" d="M20 1518v159h472v-159h-472z" />
<glyph unicode="&#xb0;" horiz-adv-x="466" d="M31 1247q0 86 58 144.5t144 58.5t144.5 -58.5t58.5 -144.5t-58.5 -144.5t-144.5 -58.5t-144 58.5t-58 144.5zM133 1247q0 -41 30 -70.5t70 -29.5q41 0 71 29.5t30 70.5t-30 71t-71 30t-70.5 -30t-29.5 -71z" />
<glyph unicode="&#xb1;" d="M72 356v160h254v164h-254v160h254v233h159v-233h254v-160h-254v-164h254v-160h-667z" />
<glyph unicode="&#xb2;" horiz-adv-x="573" d="M86 719v110q0 66 20.5 117t52 93t68.5 81t69 81t52.5 92t20.5 116q0 59 -19.5 80.5t-54.5 21.5t-54.5 -20.5t-19.5 -69.5v-96h-135v88q0 111 53.5 169t159.5 58t159.5 -58t53.5 -169q0 -76 -22.5 -135t-56.5 -108.5t-72.5 -91.5t-70.5 -79.5t-50.5 -74.5t-10.5 -76h271 v-129h-414z" />
<glyph unicode="&#xb3;" horiz-adv-x="573" d="M74 938v74h135v-84q0 -47 19.5 -68.5t54.5 -21.5t54 21.5t19 82.5v70q0 66 -22.5 90t-69.5 24h-49v129h55q41 0 63.5 22.5t22.5 76.5v51q0 61 -19.5 82.5t-53.5 21.5q-35 0 -54.5 -21.5t-19.5 -68.5v-57h-135v47q0 111 53 170t160 59q106 0 159.5 -59t53.5 -170v-23 q0 -145 -101 -186q53 -23 77 -72t24 -118v-72q0 -111 -53.5 -170t-159.5 -59t-159.5 59t-53.5 170z" />
<glyph unicode="&#xb4;" horiz-adv-x="512" d="M55 1509l140 228h221l-209 -228h-152z" />
<glyph unicode="&#xb5;" d="M63 -190v1214h226v-694q0 -78 31.5 -110t85.5 -32q53 0 84.5 32t31.5 110v694h226v-1024h-205v106q-63 -123 -205 -122q-14 0 -26.5 1t-22.5 3v-178h-226z" />
<glyph unicode="&#xb6;" d="M29 893v186q0 174 83 264.5t253 90.5h364v-1567h-164v1403h-110v-1403h-164l4 676q-129 0 -197.5 98t-68.5 252z" />
<glyph unicode="&#xb7;" horiz-adv-x="380" d="M82 608v217h217v-217h-217z" />
<glyph unicode="&#xb8;" horiz-adv-x="512" d="M53 -162h152v-16q0 -23 14 -32t31 -9q51 0 51 49q0 53 -74 53h-20v146h98v-109q76 0 114 -21.5t38 -74.5q0 -41 -15.5 -65.5t-43 -38t-65.5 -17.5t-83 -4q-84 0 -140.5 23.5t-56.5 95.5v20z" />
<glyph unicode="&#xb9;" horiz-adv-x="409" d="M51 1413v100q41 0 67.5 9.5t44 25t28 37t20.5 43.5h94v-909h-143v694h-111z" />
<glyph unicode="&#xba;" horiz-adv-x="573" d="M70 446v142h434v-142h-434zM70 899v318q0 109 55 168t162 59q106 0 161.5 -59.5t55.5 -167.5v-318q0 -109 -55.5 -168t-161.5 -59t-161.5 59.5t-55.5 167.5zM213 891q0 -49 19.5 -68.5t54.5 -19.5t54 19.5t19 68.5v334q0 49 -19 68.5t-54 19.5t-54.5 -19.5t-19.5 -68.5 v-334z" />
<glyph unicode="&#xbb;" horiz-adv-x="727" d="M33 160l125 559l-125 526h203l126 -526l-126 -559h-203zM365 160l124 559l-124 526h202l127 -526l-127 -559h-202z" />
<glyph unicode="&#xbc;" horiz-adv-x="1284" d="M133 1219v100q41 0 67.5 9t44 24.5t28 37t20.5 44.5h94v-910h-143v695h-111zM328 0l565 1434h133l-565 -1434h-133zM760 164v131l260 614h156v-614h67v-131h-67v-164h-142v164h-274zM889 295h145v336z" />
<glyph unicode="&#xbd;" horiz-adv-x="1284" d="M133 1219v100q41 0 67.5 9t44 24.5t28 37t20.5 44.5h94v-910h-143v695h-111zM266 0l565 1434h134l-566 -1434h-133zM797 0v111q0 66 20.5 117t52 92.5t68.5 80.5t68.5 81t52 92t20.5 116q0 59 -19.5 81t-53.5 22q-35 0 -54.5 -20.5t-19.5 -70.5v-96h-135v88 q0 111 53 169.5t160 58.5q106 0 159.5 -58.5t53.5 -169.5q0 -74 -22.5 -134t-56.5 -109.5t-73 -91.5t-70.5 -79.5t-50 -74.5t-10.5 -76h270v-129h-413z" />
<glyph unicode="&#xbe;" horiz-adv-x="1284" d="M74 743v74h135v-84q0 -47 19.5 -68.5t54.5 -21.5t54 21.5t19 83.5v69q0 66 -22.5 90.5t-69.5 24.5h-49v129h55q41 0 63.5 22.5t22.5 75.5v51q0 61 -19.5 83t-53.5 22q-35 0 -54.5 -21.5t-19.5 -68.5v-58h-135v47q0 111 53 170.5t160 59.5q106 0 159.5 -59.5t53.5 -170.5 v-22q0 -145 -101 -186q53 -23 77 -72t24 -119v-72q0 -111 -53.5 -170t-159.5 -59t-159.5 59.5t-53.5 169.5zM348 0l565 1434h134l-566 -1434h-133zM760 164v131l260 614h156v-614h67v-131h-67v-164h-142v164h-274zM889 295h145v336z" />
<glyph unicode="&#xbf;" horiz-adv-x="737" d="M33 344q0 92 19.5 161.5t49 125t64.5 101.5t64.5 91t49 96.5t19.5 116.5q0 45 -8 80h201q12 -37 12 -88q0 -78 -18.5 -135t-45 -105.5t-59.5 -92.5t-59.5 -95t-45 -116.5t-18.5 -153.5q0 -78 29.5 -110t83.5 -32q53 0 82.5 32t29.5 110v155h213v-141q0 -174 -83 -267 t-248 -93q-166 0 -249 93t-83 267zM285 1217v217h217v-217h-217z" />
<glyph unicode="&#xc0;" horiz-adv-x="833" d="M23 0l229 1434h330l229 -1434h-227l-39 260h-277l-39 -260h-206zM170 1737h231l140 -228h-162zM297 455h217l-108 725z" />
<glyph unicode="&#xc1;" horiz-adv-x="833" d="M23 0l229 1434h330l229 -1434h-227l-39 260h-277l-39 -260h-206zM297 455h217l-108 725zM297 1509l139 228h221l-208 -228h-152z" />
<glyph unicode="&#xc2;" horiz-adv-x="833" d="M23 0l229 1434h330l229 -1434h-227l-39 260h-277l-39 -260h-206zM133 1509l182 228h203l182 -228h-192l-92 113l-90 -113h-193zM297 455h217l-108 725z" />
<glyph unicode="&#xc3;" horiz-adv-x="833" d="M23 0l229 1434h330l229 -1434h-227l-39 260h-277l-39 -260h-206zM139 1577q29 78 75 108.5t99 30.5q33 0 56.5 -8t45 -17.5t41 -17.5t42.5 -8q29 0 49 10.5t39 48.5l108 -75q-29 -78 -75 -109t-99 -31q-33 0 -56.5 8.5t-45 17.5t-41 17.5t-41.5 8.5q-29 0 -49.5 -10.5 t-38.5 -49.5zM297 455h217l-108 725z" />
<glyph unicode="&#xc4;" horiz-adv-x="833" d="M23 0l229 1434h330l229 -1434h-227l-39 260h-277l-39 -260h-206zM162 1509v197h196v-197h-196zM297 455h217l-108 725zM473 1509v197h197v-197h-197z" />
<glyph unicode="&#xc5;" horiz-adv-x="833" d="M23 0l229 1434h330l229 -1434h-227l-39 260h-277l-39 -260h-206zM252 1667q0 70 47 117t117 47t117 -47t47 -117t-47.5 -117t-116.5 -47q-70 0 -117 47t-47 117zM297 455h217l-108 725zM354 1667q0 -27 17.5 -44t44.5 -17t44 17t17 44t-17.5 44.5t-43.5 17.5 q-27 0 -44.5 -17.5t-17.5 -44.5z" />
<glyph unicode="&#xc6;" horiz-adv-x="1187" d="M8 0l383 1434h739v-205h-389v-400h310v-204h-310v-420h389v-205h-614v260h-227l-66 -260h-215zM340 455h176v690z" />
<glyph unicode="&#xc7;" horiz-adv-x="790" d="M63 344v746q0 174 85 267t251 93t251 -93t85 -267v-140h-213v154q0 78 -31.5 109.5t-84.5 31.5t-85 -31.5t-32 -109.5v-774q0 -78 31.5 -109t85.5 -31q53 0 84.5 31t31.5 109v205h213v-191q0 -160 -73.5 -253t-217.5 -105v-66q76 0 114 -21.5t38 -74.5q0 -41 -15.5 -65.5 t-43 -38t-65.5 -17.5t-83 -4q-84 0 -140 23.5t-56 95.5v20h151v-16q0 -23 14.5 -32t30.5 -9q51 0 51 49q0 53 -73 53h-21v105q-141 14 -212 105t-71 251z" />
<glyph unicode="&#xc8;" horiz-adv-x="753" d="M82 0v1434h614v-205h-389v-400h309v-204h-309v-420h389v-205h-614zM139 1737h232l139 -228h-162z" />
<glyph unicode="&#xc9;" horiz-adv-x="753" d="M82 0v1434h614v-205h-389v-400h309v-204h-309v-420h389v-205h-614zM268 1509l140 228h221l-209 -228h-152z" />
<glyph unicode="&#xca;" horiz-adv-x="753" d="M82 0v1434h614v-205h-389v-400h309v-204h-309v-420h389v-205h-614zM102 1509l183 228h202l183 -228h-193l-92 113l-90 -113h-193z" />
<glyph unicode="&#xcb;" horiz-adv-x="753" d="M82 0v1434h614v-205h-389v-400h309v-204h-309v-420h389v-205h-614zM133 1509v197h197v-197h-197zM444 1509v197h197v-197h-197z" />
<glyph unicode="&#xcc;" horiz-adv-x="389" d="M-51 1737h231l139 -228h-161zM82 0v1434h225v-1434h-225z" />
<glyph unicode="&#xcd;" horiz-adv-x="389" d="M76 1509l139 228h221l-209 -228h-151zM82 0v1434h225v-1434h-225z" />
<glyph unicode="&#xce;" horiz-adv-x="389" d="M-88 1509l182 228h203l182 -228h-192l-92 113l-91 -113h-192zM82 0v1434h225v-1434h-225z" />
<glyph unicode="&#xcf;" horiz-adv-x="389" d="M-59 1509v197h196v-197h-196zM82 0v1434h225v-1434h-225zM252 1509v197h197v-197h-197z" />
<glyph unicode="&#xd0;" horiz-adv-x="835" d="M8 625v184h74v625h356q170 0 253 -90.5t83 -264.5v-725q0 -174 -83 -264t-253 -90h-356v625h-74zM307 205h127q53 0 84 30.5t31 108.5v746q0 78 -31 108.5t-84 30.5h-127v-420h139v-184h-139v-420z" />
<glyph unicode="&#xd1;" horiz-adv-x="874" d="M80 0v1434h282l232 -859v859h201v-1434h-232l-280 1038v-1038h-203zM160 1577q29 78 75 108.5t99 30.5q33 0 56.5 -8t45 -17.5t40.5 -17.5t42 -8q29 0 49.5 10.5t38.5 48.5l109 -75q-29 -78 -75 -109t-99 -31q-33 0 -56.5 8.5t-45 17.5t-41 17.5t-42.5 8.5 q-29 0 -49 -10.5t-39 -49.5z" />
<glyph unicode="&#xd2;" d="M63 344v746q0 174 88.5 267t254.5 93t254 -93t88 -267v-746q0 -174 -88.5 -267t-253.5 -93q-166 0 -254.5 93t-88.5 267zM158 1737h231l139 -228h-161zM289 330q0 -78 31.5 -110t85.5 -32q53 0 84.5 32t31.5 110v774q0 78 -31.5 109.5t-84.5 31.5t-85 -31.5t-32 -109.5 v-774z" />
<glyph unicode="&#xd3;" d="M63 344v746q0 174 88.5 267t254.5 93t254 -93t88 -267v-746q0 -174 -88.5 -267t-253.5 -93q-166 0 -254.5 93t-88.5 267zM287 1509l139 228h221l-209 -228h-151zM289 330q0 -78 31.5 -110t85.5 -32q53 0 84.5 32t31.5 110v774q0 78 -31.5 109.5t-84.5 31.5t-85 -31.5 t-32 -109.5v-774z" />
<glyph unicode="&#xd4;" d="M63 344v746q0 174 88.5 267t254.5 93t254 -93t88 -267v-746q0 -174 -88.5 -267t-253.5 -93q-166 0 -254.5 93t-88.5 267zM121 1509l182 228h203l182 -228h-192l-93 113l-90 -113h-192zM289 330q0 -78 31.5 -110t85.5 -32q53 0 84.5 32t31.5 110v774q0 78 -31.5 109.5 t-84.5 31.5t-85 -31.5t-32 -109.5v-774z" />
<glyph unicode="&#xd5;" d="M63 344v746q0 174 88.5 267t254.5 93t254 -93t88 -267v-746q0 -174 -88.5 -267t-253.5 -93q-166 0 -254.5 93t-88.5 267zM129 1577q29 78 75 108.5t99 30.5q33 0 56.5 -8t45 -17.5t40.5 -17.5t42 -8q29 0 49.5 10.5t38.5 48.5l109 -75q-29 -78 -75 -109t-99 -31 q-33 0 -56.5 8.5t-45 17.5t-41 17.5t-41.5 8.5q-29 0 -49.5 -10.5t-38.5 -49.5zM289 330q0 -78 31.5 -110t85.5 -32q53 0 84.5 32t31.5 110v774q0 78 -31.5 109.5t-84.5 31.5t-85 -31.5t-32 -109.5v-774z" />
<glyph unicode="&#xd6;" d="M63 344v746q0 174 88.5 267t254.5 93t254 -93t88 -267v-746q0 -174 -88.5 -267t-253.5 -93q-166 0 -254.5 93t-88.5 267zM152 1509v197h196v-197h-196zM289 330q0 -78 31.5 -110t85.5 -32q53 0 84.5 32t31.5 110v774q0 78 -31.5 109.5t-84.5 31.5t-85 -31.5t-32 -109.5 v-774zM463 1509v197h196v-197h-196z" />
<glyph unicode="&#xd7;" d="M78 500l217 217l-215 215l108 108l218 -215l217 217l108 -108l-217 -217l217 -217l-108 -109l-217 217l-220 -217z" />
<glyph unicode="&#xd8;" d="M63 344v746q0 174 88.5 267t254.5 93q123 0 204 -53l41 112l76 -26l-53 -146q74 -90 74 -247v-746q0 -174 -88.5 -267t-253.5 -93q-127 0 -205 51l-41 -111l-76 27l51 143q-72 94 -72 250zM289 514l229 633q-8 53 -37.5 75.5t-74.5 22.5q-53 0 -85 -31.5t-32 -109.5v-590 zM291 287q10 -53 39 -76t76 -23q53 0 84.5 32t31.5 110v590z" />
<glyph unicode="&#xd9;" horiz-adv-x="815" d="M72 342v1092h225v-1106q0 -78 31.5 -109t85.5 -31q53 0 84.5 31t31.5 109v1106h213v-1092q0 -174 -85 -267t-250 -93q-166 0 -251 93t-85 267zM162 1737h231l139 -228h-161z" />
<glyph unicode="&#xda;" horiz-adv-x="815" d="M72 342v1092h225v-1106q0 -78 31.5 -109t85.5 -31q53 0 84.5 31t31.5 109v1106h213v-1092q0 -174 -85 -267t-250 -93q-166 0 -251 93t-85 267zM291 1509l139 228h221l-209 -228h-151z" />
<glyph unicode="&#xdb;" horiz-adv-x="815" d="M72 342v1092h225v-1106q0 -78 31.5 -109t85.5 -31q53 0 84.5 31t31.5 109v1106h213v-1092q0 -174 -85 -267t-250 -93q-166 0 -251 93t-85 267zM127 1509l182 228h203l182 -228h-192l-92 113l-91 -113h-192z" />
<glyph unicode="&#xdc;" horiz-adv-x="815" d="M72 342v1092h225v-1106q0 -78 31.5 -109t85.5 -31q53 0 84.5 31t31.5 109v1106h213v-1092q0 -174 -85 -267t-250 -93q-166 0 -251 93t-85 267zM158 1509v197h196v-197h-196zM469 1509v197h197v-197h-197z" />
<glyph unicode="&#xdd;" d="M8 1434h236l172 -654l172 654h215l-285 -959v-475h-225v475zM295 1509l139 228h221l-209 -228h-151z" />
<glyph unicode="&#xde;" horiz-adv-x="772" d="M82 0v1434h225v-164h107q170 0 253 -90t83 -265v-186q0 -174 -83 -264t-253 -90h-107v-375h-225zM307 580h107q53 0 81.5 28.5t28.5 106.5v215q0 78 -28.5 106.5t-81.5 28.5h-107v-485z" />
<glyph unicode="&#xdf;" horiz-adv-x="1531" d="M47 344v88h213v-102q0 -78 32 -109t85 -31t85 31t32 109q0 74 -33 130t-82 106t-105.5 100.5t-105.5 110t-82 135.5t-33 178q0 174 83 267t249 93t249 -93t83 -267v-46h-213v60q0 78 -30 109.5t-83 31.5t-82.5 -31.5t-29.5 -109.5q0 -74 32.5 -130t81.5 -106.5 t105.5 -100.5t105.5 -109.5t82 -135.5t33 -178q0 -174 -85 -267t-251 -93t-251 93t-85 267zM813 344v88h213v-102q0 -78 32 -109t85 -31t85 31t32 109q0 74 -33 130t-82 106t-105.5 100.5t-105.5 110t-82 135.5t-33 178q0 174 83 267t249 93t249 -93t83 -267v-46h-213v60 q0 78 -30 109.5t-83 31.5t-83 -31.5t-30 -109.5q0 -74 33 -130t82 -106.5t105.5 -100.5t105.5 -109.5t82 -135.5t33 -178q0 -174 -85 -267t-251 -93t-251 93t-85 267z" />
<glyph unicode="&#xe0;" horiz-adv-x="833" d="M23 0l229 1434h330l229 -1434h-227l-39 260h-277l-39 -260h-206zM170 1737h231l140 -228h-162zM297 455h217l-108 725z" />
<glyph unicode="&#xe1;" horiz-adv-x="833" d="M23 0l229 1434h330l229 -1434h-227l-39 260h-277l-39 -260h-206zM297 455h217l-108 725zM297 1509l139 228h221l-208 -228h-152z" />
<glyph unicode="&#xe2;" horiz-adv-x="833" d="M23 0l229 1434h330l229 -1434h-227l-39 260h-277l-39 -260h-206zM133 1509l182 228h203l182 -228h-192l-92 113l-90 -113h-193zM297 455h217l-108 725z" />
<glyph unicode="&#xe3;" horiz-adv-x="833" d="M23 0l229 1434h330l229 -1434h-227l-39 260h-277l-39 -260h-206zM139 1577q29 78 75 108.5t99 30.5q33 0 56.5 -8t45 -17.5t41 -17.5t42.5 -8q29 0 49 10.5t39 48.5l108 -75q-29 -78 -75 -109t-99 -31q-33 0 -56.5 8.5t-45 17.5t-41 17.5t-41.5 8.5q-29 0 -49.5 -10.5 t-38.5 -49.5zM297 455h217l-108 725z" />
<glyph unicode="&#xe4;" horiz-adv-x="833" d="M23 0l229 1434h330l229 -1434h-227l-39 260h-277l-39 -260h-206zM162 1509v197h196v-197h-196zM297 455h217l-108 725zM473 1509v197h197v-197h-197z" />
<glyph unicode="&#xe5;" horiz-adv-x="833" d="M23 0l229 1434h330l229 -1434h-227l-39 260h-277l-39 -260h-206zM252 1667q0 70 47 117t117 47t117 -47t47 -117t-47.5 -117t-116.5 -47q-70 0 -117 47t-47 117zM297 455h217l-108 725zM354 1667q0 -27 17.5 -44t44.5 -17t44 17t17 44t-17.5 44.5t-43.5 17.5 q-27 0 -44.5 -17.5t-17.5 -44.5z" />
<glyph unicode="&#xe6;" horiz-adv-x="1187" d="M8 0l383 1434h739v-205h-389v-400h310v-204h-310v-420h389v-205h-614v260h-227l-66 -260h-215zM340 455h176v690z" />
<glyph unicode="&#xe7;" horiz-adv-x="790" d="M63 344v746q0 174 85 267t251 93t251 -93t85 -267v-140h-213v154q0 78 -31.5 109.5t-84.5 31.5t-85 -31.5t-32 -109.5v-774q0 -78 31.5 -109t85.5 -31q53 0 84.5 31t31.5 109v205h213v-191q0 -160 -73.5 -253t-217.5 -105v-66q76 0 114 -21.5t38 -74.5q0 -41 -15.5 -65.5 t-43 -38t-65.5 -17.5t-83 -4q-84 0 -140 23.5t-56 95.5v20h151v-16q0 -23 14.5 -32t30.5 -9q51 0 51 49q0 53 -73 53h-21v105q-141 14 -212 105t-71 251z" />
<glyph unicode="&#xe8;" horiz-adv-x="753" d="M82 0v1434h614v-205h-389v-400h309v-204h-309v-420h389v-205h-614zM139 1737h232l139 -228h-162z" />
<glyph unicode="&#xe9;" horiz-adv-x="753" d="M82 0v1434h614v-205h-389v-400h309v-204h-309v-420h389v-205h-614zM268 1509l140 228h221l-209 -228h-152z" />
<glyph unicode="&#xea;" horiz-adv-x="753" d="M82 0v1434h614v-205h-389v-400h309v-204h-309v-420h389v-205h-614zM102 1509l183 228h202l183 -228h-193l-92 113l-90 -113h-193z" />
<glyph unicode="&#xeb;" horiz-adv-x="753" d="M82 0v1434h614v-205h-389v-400h309v-204h-309v-420h389v-205h-614zM133 1509v197h197v-197h-197zM444 1509v197h197v-197h-197z" />
<glyph unicode="&#xec;" horiz-adv-x="389" d="M-51 1737h231l139 -228h-161zM82 0v1434h225v-1434h-225z" />
<glyph unicode="&#xed;" horiz-adv-x="389" d="M76 1509l139 228h221l-209 -228h-151zM82 0v1434h225v-1434h-225z" />
<glyph unicode="&#xee;" horiz-adv-x="389" d="M-88 1509l182 228h203l182 -228h-192l-92 113l-91 -113h-192zM82 0v1434h225v-1434h-225z" />
<glyph unicode="&#xef;" horiz-adv-x="389" d="M-59 1509v197h196v-197h-196zM82 0v1434h225v-1434h-225zM252 1509v197h197v-197h-197z" />
<glyph unicode="&#xf0;" horiz-adv-x="835" d="M8 625v184h74v625h356q170 0 253 -90.5t83 -264.5v-725q0 -174 -83 -264t-253 -90h-356v625h-74zM307 205h127q53 0 84 30.5t31 108.5v746q0 78 -31 108.5t-84 30.5h-127v-420h139v-184h-139v-420z" />
<glyph unicode="&#xf1;" horiz-adv-x="874" d="M80 0v1434h282l232 -859v859h201v-1434h-232l-280 1038v-1038h-203zM160 1577q29 78 75 108.5t99 30.5q33 0 56.5 -8t45 -17.5t40.5 -17.5t42 -8q29 0 49.5 10.5t38.5 48.5l109 -75q-29 -78 -75 -109t-99 -31q-33 0 -56.5 8.5t-45 17.5t-41 17.5t-42.5 8.5 q-29 0 -49 -10.5t-39 -49.5z" />
<glyph unicode="&#xf2;" d="M63 344v746q0 174 88.5 267t254.5 93t254 -93t88 -267v-746q0 -174 -88.5 -267t-253.5 -93q-166 0 -254.5 93t-88.5 267zM158 1737h231l139 -228h-161zM289 330q0 -78 31.5 -110t85.5 -32q53 0 84.5 32t31.5 110v774q0 78 -31.5 109.5t-84.5 31.5t-85 -31.5t-32 -109.5 v-774z" />
<glyph unicode="&#xf3;" d="M63 344v746q0 174 88.5 267t254.5 93t254 -93t88 -267v-746q0 -174 -88.5 -267t-253.5 -93q-166 0 -254.5 93t-88.5 267zM287 1509l139 228h221l-209 -228h-151zM289 330q0 -78 31.5 -110t85.5 -32q53 0 84.5 32t31.5 110v774q0 78 -31.5 109.5t-84.5 31.5t-85 -31.5 t-32 -109.5v-774z" />
<glyph unicode="&#xf4;" d="M63 344v746q0 174 88.5 267t254.5 93t254 -93t88 -267v-746q0 -174 -88.5 -267t-253.5 -93q-166 0 -254.5 93t-88.5 267zM121 1509l182 228h203l182 -228h-192l-93 113l-90 -113h-192zM289 330q0 -78 31.5 -110t85.5 -32q53 0 84.5 32t31.5 110v774q0 78 -31.5 109.5 t-84.5 31.5t-85 -31.5t-32 -109.5v-774z" />
<glyph unicode="&#xf5;" d="M63 344v746q0 174 88.5 267t254.5 93t254 -93t88 -267v-746q0 -174 -88.5 -267t-253.5 -93q-166 0 -254.5 93t-88.5 267zM129 1577q29 78 75 108.5t99 30.5q33 0 56.5 -8t45 -17.5t40.5 -17.5t42 -8q29 0 49.5 10.5t38.5 48.5l109 -75q-29 -78 -75 -109t-99 -31 q-33 0 -56.5 8.5t-45 17.5t-41 17.5t-41.5 8.5q-29 0 -49.5 -10.5t-38.5 -49.5zM289 330q0 -78 31.5 -110t85.5 -32q53 0 84.5 32t31.5 110v774q0 78 -31.5 109.5t-84.5 31.5t-85 -31.5t-32 -109.5v-774z" />
<glyph unicode="&#xf6;" d="M63 344v746q0 174 88.5 267t254.5 93t254 -93t88 -267v-746q0 -174 -88.5 -267t-253.5 -93q-166 0 -254.5 93t-88.5 267zM152 1509v197h196v-197h-196zM289 330q0 -78 31.5 -110t85.5 -32q53 0 84.5 32t31.5 110v774q0 78 -31.5 109.5t-84.5 31.5t-85 -31.5t-32 -109.5 v-774zM463 1509v197h196v-197h-196z" />
<glyph unicode="&#xf7;" d="M51 637v160h709v-160h-709zM297 295v217h217v-217h-217zM297 920v217h217v-217h-217z" />
<glyph unicode="&#xf8;" d="M63 344v746q0 174 88.5 267t254.5 93q123 0 204 -53l41 112l76 -26l-53 -146q74 -90 74 -247v-746q0 -174 -88.5 -267t-253.5 -93q-127 0 -205 51l-41 -111l-76 27l51 143q-72 94 -72 250zM289 514l229 633q-8 53 -37.5 75.5t-74.5 22.5q-53 0 -85 -31.5t-32 -109.5v-590 zM291 287q10 -53 39 -76t76 -23q53 0 84.5 32t31.5 110v590z" />
<glyph unicode="&#xf9;" horiz-adv-x="815" d="M72 342v1092h225v-1106q0 -78 31.5 -109t85.5 -31q53 0 84.5 31t31.5 109v1106h213v-1092q0 -174 -85 -267t-250 -93q-166 0 -251 93t-85 267zM162 1737h231l139 -228h-161z" />
<glyph unicode="&#xfa;" horiz-adv-x="815" d="M72 342v1092h225v-1106q0 -78 31.5 -109t85.5 -31q53 0 84.5 31t31.5 109v1106h213v-1092q0 -174 -85 -267t-250 -93q-166 0 -251 93t-85 267zM291 1509l139 228h221l-209 -228h-151z" />
<glyph unicode="&#xfb;" horiz-adv-x="815" d="M72 342v1092h225v-1106q0 -78 31.5 -109t85.5 -31q53 0 84.5 31t31.5 109v1106h213v-1092q0 -174 -85 -267t-250 -93q-166 0 -251 93t-85 267zM127 1509l182 228h203l182 -228h-192l-92 113l-91 -113h-192z" />
<glyph unicode="&#xfc;" horiz-adv-x="815" d="M72 342v1092h225v-1106q0 -78 31.5 -109t85.5 -31q53 0 84.5 31t31.5 109v1106h213v-1092q0 -174 -85 -267t-250 -93q-166 0 -251 93t-85 267zM158 1509v197h196v-197h-196zM469 1509v197h197v-197h-197z" />
<glyph unicode="&#xfd;" d="M8 1434h236l172 -654l172 654h215l-285 -959v-475h-225v475zM295 1509l139 228h221l-209 -228h-151z" />
<glyph unicode="&#xfe;" horiz-adv-x="772" d="M82 0v1434h225v-164h107q170 0 253 -90t83 -265v-186q0 -174 -83 -264t-253 -90h-107v-375h-225zM307 580h107q53 0 81.5 28.5t28.5 106.5v215q0 78 -28.5 106.5t-81.5 28.5h-107v-485z" />
<glyph unicode="&#xff;" d="M8 1434h236l172 -654l172 654h215l-285 -959v-475h-225v475zM160 1509v197h196v-197h-196zM471 1509v197h197v-197h-197z" />
<glyph unicode="&#x100;" horiz-adv-x="833" d="M23 0l229 1434h330l229 -1434h-227l-39 260h-277l-39 -260h-206zM180 1518v159h471v-159h-471zM297 455h217l-108 725z" />
<glyph unicode="&#x101;" horiz-adv-x="833" d="M23 0l229 1434h330l229 -1434h-227l-39 260h-277l-39 -260h-206zM180 1518v159h471v-159h-471zM297 455h217l-108 725z" />
<glyph unicode="&#x102;" horiz-adv-x="833" d="M23 0l229 1434h330l229 -1434h-227l-39 260h-277l-39 -260h-206zM186 1737h133q4 -59 28 -78t67 -19q45 0 69.5 18.5t28.5 78.5h133q0 -109 -57.5 -172.5t-173.5 -63.5q-117 0 -171.5 63.5t-56.5 172.5zM297 455h217l-108 725z" />
<glyph unicode="&#x103;" horiz-adv-x="833" d="M23 0l229 1434h330l229 -1434h-227l-39 260h-277l-39 -260h-206zM186 1737h133q4 -59 28 -78t67 -19q45 0 69.5 18.5t28.5 78.5h133q0 -109 -57.5 -172.5t-173.5 -63.5q-117 0 -171.5 63.5t-56.5 172.5zM297 455h217l-108 725z" />
<glyph unicode="&#x104;" horiz-adv-x="833" d="M23 0l229 1434h330l229 -1434h-84q-39 -33 -50 -64.5t-11 -54.5q0 -29 21.5 -43t49.5 -14q31 0 44.5 4t29.5 8v-115q-35 -14 -65.5 -18t-73.5 -4q-82 0 -130 31.5t-48 95.5q0 86 96 149l-45 285h-277l-39 -260h-206zM297 455h217l-108 725z" />
<glyph unicode="&#x105;" horiz-adv-x="833" d="M23 0l229 1434h330l229 -1434h-84q-39 -33 -50 -64.5t-11 -54.5q0 -29 21.5 -43t49.5 -14q31 0 44.5 4t29.5 8v-115q-35 -14 -65.5 -18t-73.5 -4q-82 0 -130 31.5t-48 95.5q0 86 96 149l-45 285h-277l-39 -260h-206zM297 455h217l-108 725z" />
<glyph unicode="&#x106;" horiz-adv-x="790" d="M63 344v746q0 174 85 267t251 93t251 -93t85 -267v-140h-213v154q0 78 -31.5 109.5t-84.5 31.5t-85 -31.5t-32 -109.5v-774q0 -78 31.5 -109t85.5 -31q53 0 84.5 31t31.5 109v205h213v-191q0 -174 -85 -267t-251 -93t-251 93t-85 267zM281 1509l139 228h221l-209 -228 h-151z" />
<glyph unicode="&#x107;" horiz-adv-x="790" d="M63 344v746q0 174 85 267t251 93t251 -93t85 -267v-140h-213v154q0 78 -31.5 109.5t-84.5 31.5t-85 -31.5t-32 -109.5v-774q0 -78 31.5 -109t85.5 -31q53 0 84.5 31t31.5 109v205h213v-191q0 -174 -85 -267t-251 -93t-251 93t-85 267zM281 1509l139 228h221l-209 -228 h-151z" />
<glyph unicode="&#x108;" horiz-adv-x="790" d="M63 344v746q0 174 85 267t251 93t251 -93t85 -267v-140h-213v154q0 78 -31.5 109.5t-84.5 31.5t-85 -31.5t-32 -109.5v-774q0 -78 31.5 -109t85.5 -31q53 0 84.5 31t31.5 109v205h213v-191q0 -174 -85 -267t-251 -93t-251 93t-85 267zM115 1509l182 228h203l182 -228 h-193l-92 113l-90 -113h-192z" />
<glyph unicode="&#x109;" horiz-adv-x="790" d="M63 344v746q0 174 85 267t251 93t251 -93t85 -267v-140h-213v154q0 78 -31.5 109.5t-84.5 31.5t-85 -31.5t-32 -109.5v-774q0 -78 31.5 -109t85.5 -31q53 0 84.5 31t31.5 109v205h213v-191q0 -174 -85 -267t-251 -93t-251 93t-85 267zM115 1509l182 228h203l182 -228 h-193l-92 113l-90 -113h-192z" />
<glyph unicode="&#x10a;" horiz-adv-x="790" d="M63 344v746q0 174 85 267t251 93t251 -93t85 -267v-140h-213v154q0 78 -31.5 109.5t-84.5 31.5t-85 -31.5t-32 -109.5v-774q0 -78 31.5 -109t85.5 -31q53 0 84.5 31t31.5 109v205h213v-191q0 -174 -85 -267t-251 -93t-251 93t-85 267zM301 1509v197h197v-197h-197z" />
<glyph unicode="&#x10b;" horiz-adv-x="790" d="M63 344v746q0 174 85 267t251 93t251 -93t85 -267v-140h-213v154q0 78 -31.5 109.5t-84.5 31.5t-85 -31.5t-32 -109.5v-774q0 -78 31.5 -109t85.5 -31q53 0 84.5 31t31.5 109v205h213v-191q0 -174 -85 -267t-251 -93t-251 93t-85 267zM301 1509v197h197v-197h-197z" />
<glyph unicode="&#x10c;" horiz-adv-x="790" d="M63 344v746q0 174 85 267t251 93t251 -93t85 -267v-140h-213v154q0 78 -31.5 109.5t-84.5 31.5t-85 -31.5t-32 -109.5v-774q0 -78 31.5 -109t85.5 -31q53 0 84.5 31t31.5 109v205h213v-191q0 -174 -85 -267t-251 -93t-251 93t-85 267zM115 1737h192l90 -115l92 115h193 l-182 -228h-203z" />
<glyph unicode="&#x10d;" horiz-adv-x="790" d="M63 344v746q0 174 85 267t251 93t251 -93t85 -267v-140h-213v154q0 78 -31.5 109.5t-84.5 31.5t-85 -31.5t-32 -109.5v-774q0 -78 31.5 -109t85.5 -31q53 0 84.5 31t31.5 109v205h213v-191q0 -174 -85 -267t-251 -93t-251 93t-85 267zM115 1737h192l90 -115l92 115h193 l-182 -228h-203z" />
<glyph unicode="&#x10e;" horiz-adv-x="835" d="M82 0v1434h356q170 0 253 -90.5t83 -264.5v-725q0 -174 -83 -264t-253 -90h-356zM115 1737h192l90 -115l92 115h193l-182 -228h-203zM307 205h127q53 0 84 30.5t31 108.5v746q0 78 -31 108.5t-84 30.5h-127v-1024z" />
<glyph unicode="&#x10f;" horiz-adv-x="835" d="M82 0v1434h356q170 0 253 -90.5t83 -264.5v-725q0 -174 -83 -264t-253 -90h-356zM115 1737h192l90 -115l92 115h193l-182 -228h-203zM307 205h127q53 0 84 30.5t31 108.5v746q0 78 -31 108.5t-84 30.5h-127v-1024z" />
<glyph unicode="&#x110;" horiz-adv-x="835" d="M8 625v184h74v625h356q170 0 253 -90.5t83 -264.5v-725q0 -174 -83 -264t-253 -90h-356v625h-74zM307 205h127q53 0 84 30.5t31 108.5v746q0 78 -31 108.5t-84 30.5h-127v-420h139v-184h-139v-420z" />
<glyph unicode="&#x111;" horiz-adv-x="835" d="M8 625v184h74v625h356q170 0 253 -90.5t83 -264.5v-725q0 -174 -83 -264t-253 -90h-356v625h-74zM307 205h127q53 0 84 30.5t31 108.5v746q0 78 -31 108.5t-84 30.5h-127v-420h139v-184h-139v-420z" />
<glyph unicode="&#x112;" horiz-adv-x="753" d="M82 0v1434h614v-205h-389v-400h309v-204h-309v-420h389v-205h-614zM150 1518v159h471v-159h-471z" />
<glyph unicode="&#x113;" horiz-adv-x="753" d="M82 0v1434h614v-205h-389v-400h309v-204h-309v-420h389v-205h-614zM150 1518v159h471v-159h-471z" />
<glyph unicode="&#x114;" horiz-adv-x="753" d="M82 0v1434h614v-205h-389v-400h309v-204h-309v-420h389v-205h-614zM156 1737h133q4 -59 27.5 -78t66.5 -19q45 0 69.5 18.5t28.5 78.5h133q0 -109 -57 -172.5t-174 -63.5t-171 63.5t-56 172.5z" />
<glyph unicode="&#x115;" horiz-adv-x="753" d="M82 0v1434h614v-205h-389v-400h309v-204h-309v-420h389v-205h-614zM156 1737h133q4 -59 27.5 -78t66.5 -19q45 0 69.5 18.5t28.5 78.5h133q0 -109 -57 -172.5t-174 -63.5t-171 63.5t-56 172.5z" />
<glyph unicode="&#x116;" horiz-adv-x="753" d="M82 0v1434h614v-205h-389v-400h309v-204h-309v-420h389v-205h-614zM287 1509v197h196v-197h-196z" />
<glyph unicode="&#x117;" horiz-adv-x="753" d="M82 0v1434h614v-205h-389v-400h309v-204h-309v-420h389v-205h-614zM287 1509v197h196v-197h-196z" />
<glyph unicode="&#x118;" horiz-adv-x="753" d="M82 0v1434h614v-205h-389v-400h309v-204h-309v-420h389v-205h-84q-39 -33 -50 -64.5t-11 -54.5q0 -29 21.5 -43t50.5 -14q31 0 44 4t29 8v-115q-35 -14 -65.5 -18t-73.5 -4q-82 0 -130 31.5t-48 95.5q0 49 33.5 94t103.5 80h-434z" />
<glyph unicode="&#x119;" horiz-adv-x="753" d="M82 0v1434h614v-205h-389v-400h309v-204h-309v-420h389v-205h-84q-39 -33 -50 -64.5t-11 -54.5q0 -29 21.5 -43t50.5 -14q31 0 44 4t29 8v-115q-35 -14 -65.5 -18t-73.5 -4q-82 0 -130 31.5t-48 95.5q0 49 33.5 94t103.5 80h-434z" />
<glyph unicode="&#x11a;" horiz-adv-x="753" d="M82 0v1434h614v-205h-389v-400h309v-204h-309v-420h389v-205h-614zM100 1737h193l90 -115l92 115h193l-183 -228h-202z" />
<glyph unicode="&#x11b;" horiz-adv-x="753" d="M82 0v1434h614v-205h-389v-400h309v-204h-309v-420h389v-205h-614zM100 1737h193l90 -115l92 115h193l-183 -228h-202z" />
<glyph unicode="&#x11c;" horiz-adv-x="798" d="M63 344v746q0 174 85 267t251 93t251 -93t85 -267v-140h-213v154q0 78 -31.5 109.5t-84.5 31.5t-85 -31.5t-32 -109.5v-774q0 -78 31.5 -109t85.5 -31q53 0 84.5 31t31.5 109v264h-102v205h315v-455q0 -174 -85 -267t-251 -93t-251 93t-85 267zM115 1509l182 228h203 l182 -228h-193l-92 113l-90 -113h-192z" />
<glyph unicode="&#x11d;" horiz-adv-x="798" d="M63 344v746q0 174 85 267t251 93t251 -93t85 -267v-140h-213v154q0 78 -31.5 109.5t-84.5 31.5t-85 -31.5t-32 -109.5v-774q0 -78 31.5 -109t85.5 -31q53 0 84.5 31t31.5 109v264h-102v205h315v-455q0 -174 -85 -267t-251 -93t-251 93t-85 267zM115 1509l182 228h203 l182 -228h-193l-92 113l-90 -113h-192z" />
<glyph unicode="&#x11e;" horiz-adv-x="798" d="M63 344v746q0 174 85 267t251 93t251 -93t85 -267v-140h-213v154q0 78 -31.5 109.5t-84.5 31.5t-85 -31.5t-32 -109.5v-774q0 -78 31.5 -109t85.5 -31q53 0 84.5 31t31.5 109v264h-102v205h315v-455q0 -174 -85 -267t-251 -93t-251 93t-85 267zM168 1737h133 q4 -59 27.5 -78t66.5 -19q45 0 69.5 18.5t29.5 78.5h133q0 -109 -57.5 -172.5t-174.5 -63.5t-171 63.5t-56 172.5z" />
<glyph unicode="&#x11f;" horiz-adv-x="798" d="M63 344v746q0 174 85 267t251 93t251 -93t85 -267v-140h-213v154q0 78 -31.5 109.5t-84.5 31.5t-85 -31.5t-32 -109.5v-774q0 -78 31.5 -109t85.5 -31q53 0 84.5 31t31.5 109v264h-102v205h315v-455q0 -174 -85 -267t-251 -93t-251 93t-85 267zM168 1737h133 q4 -59 27.5 -78t66.5 -19q45 0 69.5 18.5t29.5 78.5h133q0 -109 -57.5 -172.5t-174.5 -63.5t-171 63.5t-56 172.5z" />
<glyph unicode="&#x120;" horiz-adv-x="798" d="M63 344v746q0 174 85 267t251 93t251 -93t85 -267v-140h-213v154q0 78 -31.5 109.5t-84.5 31.5t-85 -31.5t-32 -109.5v-774q0 -78 31.5 -109t85.5 -31q53 0 84.5 31t31.5 109v264h-102v205h315v-455q0 -174 -85 -267t-251 -93t-251 93t-85 267zM299 1509v197h197v-197 h-197z" />
<glyph unicode="&#x121;" horiz-adv-x="798" d="M63 344v746q0 174 85 267t251 93t251 -93t85 -267v-140h-213v154q0 78 -31.5 109.5t-84.5 31.5t-85 -31.5t-32 -109.5v-774q0 -78 31.5 -109t85.5 -31q53 0 84.5 31t31.5 109v264h-102v205h315v-455q0 -174 -85 -267t-251 -93t-251 93t-85 267zM299 1509v197h197v-197 h-197z" />
<glyph unicode="&#x122;" horiz-adv-x="798" d="M63 344v746q0 174 85 267t251 93t251 -93t85 -267v-140h-213v154q0 78 -31.5 109.5t-84.5 31.5t-85 -31.5t-32 -109.5v-774q0 -78 31.5 -109t85.5 -31q53 0 84.5 31t31.5 109v264h-102v205h315v-455q0 -174 -85 -267t-251 -93t-251 93t-85 267zM305 -68h189v-168 l-88 -131h-80l53 111h-74v188z" />
<glyph unicode="&#x123;" horiz-adv-x="798" d="M63 344v746q0 174 85 267t251 93t251 -93t85 -267v-140h-213v154q0 78 -31.5 109.5t-84.5 31.5t-85 -31.5t-32 -109.5v-774q0 -78 31.5 -109t85.5 -31q53 0 84.5 31t31.5 109v264h-102v205h315v-455q0 -174 -85 -267t-251 -93t-251 93t-85 267zM305 -68h189v-168 l-88 -131h-80l53 111h-74v188z" />
<glyph unicode="&#x124;" horiz-adv-x="874" d="M82 0v1434h225v-615h256v615h230v-1434h-230v614h-256v-614h-225zM154 1509l182 228h203l182 -228h-193l-92 113l-90 -113h-192z" />
<glyph unicode="&#x125;" horiz-adv-x="874" d="M82 0v1434h225v-615h256v615h230v-1434h-230v614h-256v-614h-225zM154 1509l182 228h203l182 -228h-193l-92 113l-90 -113h-192z" />
<glyph unicode="&#x126;" horiz-adv-x="894" d="M20 1028v168h72v238h225v-238h256v238h230v-238h71v-168h-71v-1028h-230v614h-256v-614h-225v1028h-72zM317 819h256v209h-256v-209z" />
<glyph unicode="&#x127;" horiz-adv-x="894" d="M20 1028v168h72v238h225v-238h256v238h230v-238h71v-168h-71v-1028h-230v614h-256v-614h-225v1028h-72zM317 819h256v209h-256v-209z" />
<glyph unicode="&#x128;" horiz-adv-x="389" d="M-82 1577q29 78 75 108.5t99 30.5q33 0 56.5 -8t45 -17.5t40.5 -17.5t42 -8q29 0 49.5 10.5t39.5 48.5l108 -75q-29 -78 -75 -109t-99 -31q-33 0 -56.5 8.5t-45 17.5t-41 17.5t-41.5 8.5q-29 0 -49.5 -10.5t-38.5 -49.5zM82 0v1434h225v-1434h-225z" />
<glyph unicode="&#x129;" horiz-adv-x="389" d="M-82 1577q29 78 75 108.5t99 30.5q33 0 56.5 -8t45 -17.5t40.5 -17.5t42 -8q29 0 49.5 10.5t39.5 48.5l108 -75q-29 -78 -75 -109t-99 -31q-33 0 -56.5 8.5t-45 17.5t-41 17.5t-41.5 8.5q-29 0 -49.5 -10.5t-38.5 -49.5zM82 0v1434h225v-1434h-225z" />
<glyph unicode="&#x12a;" horiz-adv-x="389" d="M-41 1518v159h471v-159h-471zM82 0v1434h225v-1434h-225z" />
<glyph unicode="&#x12b;" horiz-adv-x="389" d="M-41 1518v159h471v-159h-471zM82 0v1434h225v-1434h-225z" />
<glyph unicode="&#x12c;" horiz-adv-x="389" d="M-35 1737h133q4 -59 28 -78t67 -19q45 0 69.5 18.5t28.5 78.5h133q0 -109 -57.5 -172.5t-173.5 -63.5q-117 0 -171.5 63.5t-56.5 172.5zM82 0v1434h225v-1434h-225z" />
<glyph unicode="&#x12d;" horiz-adv-x="389" d="M-35 1737h133q4 -59 28 -78t67 -19q45 0 69.5 18.5t28.5 78.5h133q0 -109 -57.5 -172.5t-173.5 -63.5q-117 0 -171.5 63.5t-56.5 172.5zM82 0v1434h225v-1434h-225z" />
<glyph unicode="&#x12e;" horiz-adv-x="389" d="M33 -174q0 49 33.5 94t103.5 80h-88v1434h225v-1434h-41q-39 -33 -50 -64.5t-11 -54.5q0 -29 21.5 -43t49.5 -14q31 0 44.5 4t29.5 8v-115q-35 -14 -65.5 -18t-73.5 -4q-82 0 -130 31.5t-48 95.5z" />
<glyph unicode="&#x12f;" horiz-adv-x="389" d="M33 -174q0 49 33.5 94t103.5 80h-88v1434h225v-1434h-41q-39 -33 -50 -64.5t-11 -54.5q0 -29 21.5 -43t49.5 -14q31 0 44.5 4t29.5 8v-115q-35 -14 -65.5 -18t-73.5 -4q-82 0 -130 31.5t-48 95.5z" />
<glyph unicode="&#x130;" horiz-adv-x="389" d="M82 0v1434h225v-1434h-225zM96 1509v197h197v-197h-197z" />
<glyph unicode="&#x131;" horiz-adv-x="389" d="M82 0v1434h225v-1434h-225z" />
<glyph unicode="&#x132;" horiz-adv-x="913" d="M82 0v1434h225v-1434h-225zM410 0v205q18 -2 38.5 -2h38.5q53 0 91 26.5t38 110.5v1094h226v-1078q0 -109 -27 -178t-72 -109t-103 -56.5t-122 -16.5h-55.5t-52.5 4z" />
<glyph unicode="&#x133;" horiz-adv-x="913" d="M82 0v1434h225v-1434h-225zM410 0v205q18 -2 38.5 -2h38.5q53 0 91 26.5t38 110.5v1094h226v-1078q0 -109 -27 -178t-72 -109t-103 -56.5t-122 -16.5h-55.5t-52.5 4z" />
<glyph unicode="&#x134;" horiz-adv-x="524" d="M18 1509l183 228h202l183 -228h-193l-92 113l-90 -113h-193zM20 0v205q18 -2 39 -2h39q53 0 91 26.5t38 110.5v1094h226v-1078q0 -109 -27 -178t-72 -109t-103 -56.5t-122 -16.5h-55.5t-53.5 4z" />
<glyph unicode="&#x135;" horiz-adv-x="524" d="M18 1509l183 228h202l183 -228h-193l-92 113l-90 -113h-193zM20 0v205q18 -2 39 -2h39q53 0 91 26.5t38 110.5v1094h226v-1078q0 -109 -27 -178t-72 -109t-103 -56.5t-122 -16.5h-55.5t-53.5 4z" />
<glyph unicode="&#x136;" horiz-adv-x="847" d="M82 0v1434h225v-625l295 625h225l-313 -639l313 -795h-231l-219 571l-70 -131v-440h-225zM346 -68h189v-168l-89 -131h-79l53 111h-74v188z" />
<glyph unicode="&#x137;" horiz-adv-x="847" d="M82 0v1434h225v-625l295 625h225l-313 -639l313 -795h-231l-219 571l-70 -131v-440h-225zM346 -68h189v-168l-89 -131h-79l53 111h-74v188z" />
<glyph unicode="&#x138;" horiz-adv-x="847" d="M82 0v1434h225v-625l295 625h225l-313 -639l313 -795h-231l-219 571l-70 -131v-440h-225z" />
<glyph unicode="&#x139;" horiz-adv-x="694" d="M82 0v1434h225v-1229h371v-205h-596zM147 1509l140 228h221l-209 -228h-152z" />
<glyph unicode="&#x13a;" horiz-adv-x="694" d="M82 0v1434h225v-1229h371v-205h-596zM147 1509l140 228h221l-209 -228h-152z" />
<glyph unicode="&#x13b;" horiz-adv-x="694" d="M82 0v1434h225v-1229h371v-205h-596zM287 -68h188v-168l-88 -131h-80l53 111h-73v188z" />
<glyph unicode="&#x13c;" horiz-adv-x="694" d="M82 0v1434h225v-1229h371v-205h-596zM287 -68h188v-168l-88 -131h-80l53 111h-73v188z" />
<glyph unicode="&#x13d;" horiz-adv-x="694" d="M82 0v1434h225v-1229h371v-205h-596zM432 1217v217h217v-195l-98 -227h-92l59 205h-86z" />
<glyph unicode="&#x13e;" horiz-adv-x="694" d="M82 0v1434h225v-1229h371v-205h-596zM432 1217v217h217v-195l-98 -227h-92l59 205h-86z" />
<glyph unicode="&#x13f;" horiz-adv-x="694" d="M82 0v1434h225v-1229h371v-205h-596zM430 608v217h217v-217h-217z" />
<glyph unicode="&#x140;" horiz-adv-x="694" d="M82 0v1434h225v-1229h371v-205h-596zM430 608v217h217v-217h-217z" />
<glyph unicode="&#x141;" horiz-adv-x="712" d="M0 195v204l100 107v928h226v-686l247 266v-205l-247 -266v-338h370v-205h-596v301z" />
<glyph unicode="&#x142;" horiz-adv-x="712" d="M0 195v204l100 107v928h226v-686l247 266v-205l-247 -266v-338h370v-205h-596v301z" />
<glyph unicode="&#x143;" horiz-adv-x="874" d="M80 0v1434h282l232 -859v859h201v-1434h-232l-280 1038v-1038h-203zM317 1509l140 228h221l-209 -228h-152z" />
<glyph unicode="&#x144;" horiz-adv-x="874" d="M80 0v1434h282l232 -859v859h201v-1434h-232l-280 1038v-1038h-203zM317 1509l140 228h221l-209 -228h-152z" />
<glyph unicode="&#x145;" horiz-adv-x="874" d="M80 0v1434h282l232 -859v859h201v-1434h-232l-280 1038v-1038h-203zM342 -68h188v-168l-88 -131h-80l54 111h-74v188z" />
<glyph unicode="&#x146;" horiz-adv-x="874" d="M80 0v1434h282l232 -859v859h201v-1434h-232l-280 1038v-1038h-203zM342 -68h188v-168l-88 -131h-80l54 111h-74v188z" />
<glyph unicode="&#x147;" horiz-adv-x="874" d="M80 0v1434h282l232 -859v859h201v-1434h-232l-280 1038v-1038h-203zM154 1737h192l90 -115l92 115h193l-182 -228h-203z" />
<glyph unicode="&#x148;" horiz-adv-x="874" d="M80 0v1434h282l232 -859v859h201v-1434h-232l-280 1038v-1038h-203zM154 1737h192l90 -115l92 115h193l-182 -228h-203z" />
<glyph unicode="&#x149;" horiz-adv-x="1112" d="M10 1217v217h217v-195l-98 -227h-92l59 205h-86zM317 0v1434h283l231 -859v859h201v-1434h-231l-281 1038v-1038h-203z" />
<glyph unicode="&#x14c;" d="M63 344v746q0 174 88.5 267t254.5 93t254 -93t88 -267v-746q0 -174 -88.5 -267t-253.5 -93q-166 0 -254.5 93t-88.5 267zM170 1518v159h471v-159h-471zM289 330q0 -78 31.5 -110t85.5 -32q53 0 84.5 32t31.5 110v774q0 78 -31.5 109.5t-84.5 31.5t-85 -31.5t-32 -109.5 v-774z" />
<glyph unicode="&#x14d;" d="M63 344v746q0 174 88.5 267t254.5 93t254 -93t88 -267v-746q0 -174 -88.5 -267t-253.5 -93q-166 0 -254.5 93t-88.5 267zM170 1518v159h471v-159h-471zM289 330q0 -78 31.5 -110t85.5 -32q53 0 84.5 32t31.5 110v774q0 78 -31.5 109.5t-84.5 31.5t-85 -31.5t-32 -109.5 v-774z" />
<glyph unicode="&#x14e;" d="M63 344v746q0 174 88.5 267t254.5 93t254 -93t88 -267v-746q0 -174 -88.5 -267t-253.5 -93q-166 0 -254.5 93t-88.5 267zM176 1737h133q4 -59 27.5 -78t66.5 -19q45 0 70 18.5t29 78.5h133q0 -109 -57.5 -172.5t-174.5 -63.5t-171 63.5t-56 172.5zM289 330 q0 -78 31.5 -110t85.5 -32q53 0 84.5 32t31.5 110v774q0 78 -31.5 109.5t-84.5 31.5t-85 -31.5t-32 -109.5v-774z" />
<glyph unicode="&#x14f;" d="M63 344v746q0 174 88.5 267t254.5 93t254 -93t88 -267v-746q0 -174 -88.5 -267t-253.5 -93q-166 0 -254.5 93t-88.5 267zM176 1737h133q4 -59 27.5 -78t66.5 -19q45 0 70 18.5t29 78.5h133q0 -109 -57.5 -172.5t-174.5 -63.5t-171 63.5t-56 172.5zM289 330 q0 -78 31.5 -110t85.5 -32q53 0 84.5 32t31.5 110v774q0 78 -31.5 109.5t-84.5 31.5t-85 -31.5t-32 -109.5v-774z" />
<glyph unicode="&#x150;" d="M63 344v746q0 174 88.5 267t254.5 93t254 -93t88 -267v-746q0 -174 -88.5 -267t-253.5 -93q-166 0 -254.5 93t-88.5 267zM168 1509l102 228h205l-170 -228h-137zM289 330q0 -78 31.5 -110t85.5 -32q53 0 84.5 32t31.5 110v774q0 78 -31.5 109.5t-84.5 31.5t-85 -31.5 t-32 -109.5v-774zM436 1509l101 228h206l-172 -228h-135z" />
<glyph unicode="&#x151;" d="M63 344v746q0 174 88.5 267t254.5 93t254 -93t88 -267v-746q0 -174 -88.5 -267t-253.5 -93q-166 0 -254.5 93t-88.5 267zM168 1509l102 228h205l-170 -228h-137zM289 330q0 -78 31.5 -110t85.5 -32q53 0 84.5 32t31.5 110v774q0 78 -31.5 109.5t-84.5 31.5t-85 -31.5 t-32 -109.5v-774zM436 1509l101 228h206l-172 -228h-135z" />
<glyph unicode="&#x152;" horiz-adv-x="1200" d="M61 354v725q0 174 83 264.5t253 90.5h746v-205h-389v-400h309v-204h-309v-420h389v-205h-746q-170 0 -253 90t-83 264zM287 344q0 -78 30.5 -108.5t83.5 -30.5h127v1024h-127q-53 0 -83.5 -31t-30.5 -108v-746z" />
<glyph unicode="&#x153;" horiz-adv-x="1200" d="M61 354v725q0 174 83 264.5t253 90.5h746v-205h-389v-400h309v-204h-309v-420h389v-205h-746q-170 0 -253 90t-83 264zM287 344q0 -78 30.5 -108.5t83.5 -30.5h127v1024h-127q-53 0 -83.5 -31t-30.5 -108v-746z" />
<glyph unicode="&#x154;" horiz-adv-x="823" d="M82 0v1434h340q176 0 255 -82t79 -248v-113q0 -221 -148 -291q86 -35 118 -113.5t32 -191.5v-221q0 -53 4 -93t20 -81h-229q-4 14 -8 26.5t-7 31t-4.5 47t-1.5 71.5v225q0 100 -34.5 141.5t-112.5 41.5h-78v-584h-225zM281 1509l139 228h221l-209 -228h-151zM307 788h88 q63 0 99 33t36 119v141q0 78 -27.5 113t-86.5 35h-109v-441z" />
<glyph unicode="&#x155;" horiz-adv-x="823" d="M82 0v1434h340q176 0 255 -82t79 -248v-113q0 -221 -148 -291q86 -35 118 -113.5t32 -191.5v-221q0 -53 4 -93t20 -81h-229q-4 14 -8 26.5t-7 31t-4.5 47t-1.5 71.5v225q0 100 -34.5 141.5t-112.5 41.5h-78v-584h-225zM281 1509l139 228h221l-209 -228h-151zM307 788h88 q63 0 99 33t36 119v141q0 78 -27.5 113t-86.5 35h-109v-441z" />
<glyph unicode="&#x156;" horiz-adv-x="823" d="M82 0v1434h340q176 0 255 -82t79 -248v-113q0 -221 -148 -291q86 -35 118 -113.5t32 -191.5v-221q0 -53 4 -93t20 -81h-229q-4 14 -8 26.5t-7 31t-4.5 47t-1.5 71.5v225q0 100 -34.5 141.5t-112.5 41.5h-78v-584h-225zM307 788h88q63 0 99 33t36 119v141q0 78 -27.5 113 t-86.5 35h-109v-441zM322 -68h188v-168l-88 -131h-80l53 111h-73v188z" />
<glyph unicode="&#x157;" horiz-adv-x="823" d="M82 0v1434h340q176 0 255 -82t79 -248v-113q0 -221 -148 -291q86 -35 118 -113.5t32 -191.5v-221q0 -53 4 -93t20 -81h-229q-4 14 -8 26.5t-7 31t-4.5 47t-1.5 71.5v225q0 100 -34.5 141.5t-112.5 41.5h-78v-584h-225zM307 788h88q63 0 99 33t36 119v141q0 78 -27.5 113 t-86.5 35h-109v-441zM322 -68h188v-168l-88 -131h-80l53 111h-73v188z" />
<glyph unicode="&#x158;" horiz-adv-x="823" d="M82 0v1434h340q176 0 255 -82t79 -248v-113q0 -221 -148 -291q86 -35 118 -113.5t32 -191.5v-221q0 -53 4 -93t20 -81h-229q-4 14 -8 26.5t-7 31t-4.5 47t-1.5 71.5v225q0 100 -34.5 141.5t-112.5 41.5h-78v-584h-225zM115 1737h192l90 -115l92 115h193l-182 -228h-203z M307 788h88q63 0 99 33t36 119v141q0 78 -27.5 113t-86.5 35h-109v-441z" />
<glyph unicode="&#x159;" horiz-adv-x="823" d="M82 0v1434h340q176 0 255 -82t79 -248v-113q0 -221 -148 -291q86 -35 118 -113.5t32 -191.5v-221q0 -53 4 -93t20 -81h-229q-4 14 -8 26.5t-7 31t-4.5 47t-1.5 71.5v225q0 100 -34.5 141.5t-112.5 41.5h-78v-584h-225zM115 1737h192l90 -115l92 115h193l-182 -228h-203z M307 788h88q63 0 99 33t36 119v141q0 78 -27.5 113t-86.5 35h-109v-441z" />
<glyph unicode="&#x15a;" horiz-adv-x="765" d="M47 344v88h213v-102q0 -78 32 -109t85 -31t85 31t32 109q0 74 -33 130t-82 106t-105.5 100.5t-105.5 110t-82 135.5t-33 178q0 174 83 267t249 93t249 -93t83 -267v-46h-213v60q0 78 -30 109.5t-83 31.5t-82.5 -31.5t-29.5 -109.5q0 -74 32.5 -130t81.5 -106.5 t105.5 -100.5t105.5 -109.5t82 -135.5t33 -178q0 -174 -85 -267t-251 -93t-251 93t-85 267zM264 1509l139 228h222l-209 -228h-152z" />
<glyph unicode="&#x15b;" horiz-adv-x="765" d="M47 344v88h213v-102q0 -78 32 -109t85 -31t85 31t32 109q0 74 -33 130t-82 106t-105.5 100.5t-105.5 110t-82 135.5t-33 178q0 174 83 267t249 93t249 -93t83 -267v-46h-213v60q0 78 -30 109.5t-83 31.5t-82.5 -31.5t-29.5 -109.5q0 -74 32.5 -130t81.5 -106.5 t105.5 -100.5t105.5 -109.5t82 -135.5t33 -178q0 -174 -85 -267t-251 -93t-251 93t-85 267zM264 1509l139 228h222l-209 -228h-152z" />
<glyph unicode="&#x15c;" horiz-adv-x="765" d="M47 344v88h213v-102q0 -78 32 -109t85 -31t85 31t32 109q0 74 -33 130t-82 106t-105.5 100.5t-105.5 110t-82 135.5t-33 178q0 174 83 267t249 93t249 -93t83 -267v-46h-213v60q0 78 -30 109.5t-83 31.5t-82.5 -31.5t-29.5 -109.5q0 -74 32.5 -130t81.5 -106.5 t105.5 -100.5t105.5 -109.5t82 -135.5t33 -178q0 -174 -85 -267t-251 -93t-251 93t-85 267zM98 1509l183 228h202l183 -228h-193l-92 113l-90 -113h-193z" />
<glyph unicode="&#x15d;" horiz-adv-x="765" d="M47 344v88h213v-102q0 -78 32 -109t85 -31t85 31t32 109q0 74 -33 130t-82 106t-105.5 100.5t-105.5 110t-82 135.5t-33 178q0 174 83 267t249 93t249 -93t83 -267v-46h-213v60q0 78 -30 109.5t-83 31.5t-82.5 -31.5t-29.5 -109.5q0 -74 32.5 -130t81.5 -106.5 t105.5 -100.5t105.5 -109.5t82 -135.5t33 -178q0 -174 -85 -267t-251 -93t-251 93t-85 267zM98 1509l183 228h202l183 -228h-193l-92 113l-90 -113h-193z" />
<glyph unicode="&#x15e;" horiz-adv-x="765" d="M47 344v88h213v-102q0 -78 32 -109t85 -31t85 31t32 109q0 74 -33 130t-82 106t-105.5 100.5t-105.5 110t-82 135.5t-33 178q0 174 83 267t249 93t249 -93t83 -267v-46h-213v60q0 78 -30 109.5t-83 31.5t-82.5 -31.5t-29.5 -109.5q0 -74 32.5 -130t81.5 -106.5 t105.5 -100.5t105.5 -109.5t82 -135.5t33 -178q0 -164 -76 -256t-223 -102v-66q76 0 113.5 -21.5t37.5 -74.5q0 -41 -15 -65.5t-43 -38t-65.5 -17.5t-82.5 -4q-84 0 -140.5 23.5t-56.5 95.5v20h151v-16q0 -23 14.5 -32t31.5 -9q51 0 51 49q0 53 -74 53h-20v105 q-137 16 -206 108t-69 248z" />
<glyph unicode="&#x15f;" horiz-adv-x="765" d="M47 344v88h213v-102q0 -78 32 -109t85 -31t85 31t32 109q0 74 -33 130t-82 106t-105.5 100.5t-105.5 110t-82 135.5t-33 178q0 174 83 267t249 93t249 -93t83 -267v-46h-213v60q0 78 -30 109.5t-83 31.5t-82.5 -31.5t-29.5 -109.5q0 -74 32.5 -130t81.5 -106.5 t105.5 -100.5t105.5 -109.5t82 -135.5t33 -178q0 -164 -76 -256t-223 -102v-66q76 0 113.5 -21.5t37.5 -74.5q0 -41 -15 -65.5t-43 -38t-65.5 -17.5t-82.5 -4q-84 0 -140.5 23.5t-56.5 95.5v20h151v-16q0 -23 14.5 -32t31.5 -9q51 0 51 49q0 53 -74 53h-20v105 q-137 16 -206 108t-69 248z" />
<glyph unicode="&#x160;" horiz-adv-x="765" d="M47 344v88h213v-102q0 -78 32 -109t85 -31t85 31t32 109q0 74 -33 130t-82 106t-105.5 100.5t-105.5 110t-82 135.5t-33 178q0 174 83 267t249 93t249 -93t83 -267v-46h-213v60q0 78 -30 109.5t-83 31.5t-82.5 -31.5t-29.5 -109.5q0 -74 32.5 -130t81.5 -106.5 t105.5 -100.5t105.5 -109.5t82 -135.5t33 -178q0 -174 -85 -267t-251 -93t-251 93t-85 267zM100 1737h193l90 -115l92 115h193l-183 -228h-202z" />
<glyph unicode="&#x161;" horiz-adv-x="765" d="M47 344v88h213v-102q0 -78 32 -109t85 -31t85 31t32 109q0 74 -33 130t-82 106t-105.5 100.5t-105.5 110t-82 135.5t-33 178q0 174 83 267t249 93t249 -93t83 -267v-46h-213v60q0 78 -30 109.5t-83 31.5t-82.5 -31.5t-29.5 -109.5q0 -74 32.5 -130t81.5 -106.5 t105.5 -100.5t105.5 -109.5t82 -135.5t33 -178q0 -174 -85 -267t-251 -93t-251 93t-85 267zM98 1737h193l90 -115l92 115h193l-183 -228h-202z" />
<glyph unicode="&#x162;" horiz-adv-x="729" d="M16 1229v205h697v-205h-236v-1229h-63v-80q59 0 94 -31.5t35 -85.5q0 -92 -55.5 -130t-131.5 -38q-70 0 -123 35t-53 107v20h131v-20q0 -23 13.5 -30t29.5 -7q53 0 54 53q0 57 -74 57h-23v150h-59v1229h-236z" />
<glyph unicode="&#x163;" horiz-adv-x="729" d="M16 1229v205h697v-205h-236v-1229h-63v-80q59 0 94 -31.5t35 -85.5q0 -92 -55.5 -130t-131.5 -38q-70 0 -123 35t-53 107v20h131v-20q0 -23 13.5 -30t29.5 -7q53 0 54 53q0 57 -74 57h-23v150h-59v1229h-236z" />
<glyph unicode="&#x164;" horiz-adv-x="729" d="M16 1229v205h697v-205h-236v-1229h-225v1229h-236zM80 1737h192l90 -115l93 115h192l-182 -228h-203z" />
<glyph unicode="&#x165;" horiz-adv-x="729" d="M16 1229v205h697v-205h-236v-1229h-225v1229h-236zM80 1737h192l90 -115l93 115h192l-182 -228h-203z" />
<glyph unicode="&#x166;" horiz-adv-x="729" d="M16 1229v205h697v-205h-236v-232h135v-168h-135v-829h-225v829h-135v168h135v232h-236z" />
<glyph unicode="&#x167;" horiz-adv-x="729" d="M16 1229v205h697v-205h-236v-232h135v-168h-135v-829h-225v829h-135v168h135v232h-236z" />
<glyph unicode="&#x168;" horiz-adv-x="815" d="M72 342v1092h225v-1106q0 -78 31.5 -109t85.5 -31q53 0 84.5 31t31.5 109v1106h213v-1092q0 -174 -85 -267t-250 -93q-166 0 -251 93t-85 267zM133 1577q29 78 75 108.5t99 30.5q33 0 56.5 -8t45 -17.5t41 -17.5t42.5 -8q29 0 49 10.5t39 48.5l108 -75q-29 -78 -75 -109 t-99 -31q-33 0 -56.5 8.5t-45 17.5t-41 17.5t-41.5 8.5q-29 0 -49.5 -10.5t-38.5 -49.5z" />
<glyph unicode="&#x169;" horiz-adv-x="815" d="M72 342v1092h225v-1106q0 -78 31.5 -109t85.5 -31q53 0 84.5 31t31.5 109v1106h213v-1092q0 -174 -85 -267t-250 -93q-166 0 -251 93t-85 267zM133 1577q29 78 75 108.5t99 30.5q33 0 56.5 -8t45 -17.5t41 -17.5t42.5 -8q29 0 49 10.5t39 48.5l108 -75q-29 -78 -75 -109 t-99 -31q-33 0 -56.5 8.5t-45 17.5t-41 17.5t-41.5 8.5q-29 0 -49.5 -10.5t-38.5 -49.5z" />
<glyph unicode="&#x16a;" horiz-adv-x="815" d="M72 342v1092h225v-1106q0 -78 31.5 -109t85.5 -31q53 0 84.5 31t31.5 109v1106h213v-1092q0 -174 -85 -267t-250 -93q-166 0 -251 93t-85 267zM174 1518v159h471v-159h-471z" />
<glyph unicode="&#x16b;" horiz-adv-x="815" d="M72 342v1092h225v-1106q0 -78 31.5 -109t85.5 -31q53 0 84.5 31t31.5 109v1106h213v-1092q0 -174 -85 -267t-250 -93q-166 0 -251 93t-85 267zM174 1518v159h471v-159h-471z" />
<glyph unicode="&#x16c;" horiz-adv-x="815" d="M72 342v1092h225v-1106q0 -78 31.5 -109t85.5 -31q53 0 84.5 31t31.5 109v1106h213v-1092q0 -174 -85 -267t-250 -93q-166 0 -251 93t-85 267zM180 1737h133q4 -59 28 -78t67 -19q45 0 69.5 18.5t28.5 78.5h133q0 -109 -57.5 -172.5t-173.5 -63.5q-117 0 -171.5 63.5 t-56.5 172.5z" />
<glyph unicode="&#x16d;" horiz-adv-x="815" d="M72 342v1092h225v-1106q0 -78 31.5 -109t85.5 -31q53 0 84.5 31t31.5 109v1106h213v-1092q0 -174 -85 -267t-250 -93q-166 0 -251 93t-85 267zM180 1737h133q4 -59 28 -78t67 -19q45 0 69.5 18.5t28.5 78.5h133q0 -109 -57.5 -172.5t-173.5 -63.5q-117 0 -171.5 63.5 t-56.5 172.5z" />
<glyph unicode="&#x16e;" horiz-adv-x="815" d="M72 342v1092h225v-1106q0 -78 31.5 -109t85.5 -31q53 0 84.5 31t31.5 109v1106h213v-1092q0 -174 -85 -267t-250 -93q-166 0 -251 93t-85 267zM246 1667q0 70 47 117t117 47t116.5 -47t46.5 -117t-47 -117t-116 -47q-70 0 -117 47t-47 117zM348 1667q0 -27 17.5 -44 t44.5 -17t44 17t17 44t-17.5 44.5t-43.5 17.5q-27 0 -44.5 -17.5t-17.5 -44.5z" />
<glyph unicode="&#x16f;" horiz-adv-x="815" d="M72 342v1092h225v-1106q0 -78 31.5 -109t85.5 -31q53 0 84.5 31t31.5 109v1106h213v-1092q0 -174 -85 -267t-250 -93q-166 0 -251 93t-85 267zM246 1667q0 70 47 117t117 47t116.5 -47t46.5 -117t-47 -117t-116 -47q-70 0 -117 47t-47 117zM348 1667q0 -27 17.5 -44 t44.5 -17t44 17t17 44t-17.5 44.5t-43.5 17.5q-27 0 -44.5 -17.5t-17.5 -44.5z" />
<glyph unicode="&#x170;" horiz-adv-x="815" d="M72 342v1092h225v-1106q0 -78 31.5 -109t85.5 -31q53 0 84.5 31t31.5 109v1106h213v-1092q0 -174 -85 -267t-250 -93q-166 0 -251 93t-85 267zM172 1509l102 228h205l-170 -228h-137zM440 1509l101 228h207l-173 -228h-135z" />
<glyph unicode="&#x171;" horiz-adv-x="815" d="M72 342v1092h225v-1106q0 -78 31.5 -109t85.5 -31q53 0 84.5 31t31.5 109v1106h213v-1092q0 -174 -85 -267t-250 -93q-166 0 -251 93t-85 267zM172 1509l102 228h205l-170 -228h-137zM440 1509l101 228h207l-173 -228h-135z" />
<glyph unicode="&#x172;" horiz-adv-x="815" d="M72 342v1092h225v-1106q0 -78 31.5 -109t85.5 -31q53 0 84.5 31t31.5 109v1106h213v-1092q0 -90 -23.5 -176t-105.5 -150q-43 -35 -56 -73.5t-13 -61.5q0 -29 21.5 -43t49.5 -14q31 0 44.5 4t29.5 8v-115q-35 -14 -65.5 -18t-73.5 -4q-82 0 -130 31.5t-48 95.5 q0 94 119 164q-35 -8 -84 -8q-166 0 -251 93t-85 267z" />
<glyph unicode="&#x173;" horiz-adv-x="815" d="M72 342v1092h225v-1106q0 -78 31.5 -109t85.5 -31q53 0 84.5 31t31.5 109v1106h213v-1092q0 -90 -23.5 -176t-105.5 -150q-43 -35 -56 -73.5t-13 -61.5q0 -29 21.5 -43t49.5 -14q31 0 44.5 4t29.5 8v-115q-35 -14 -65.5 -18t-73.5 -4q-82 0 -130 31.5t-48 95.5 q0 94 119 164q-35 -8 -84 -8q-166 0 -251 93t-85 267z" />
<glyph unicode="&#x174;" horiz-adv-x="1153" d="M31 1434h219l121 -1131l108 1131h217l113 -1139l117 1139h196l-159 -1434h-299l-82 764l-82 -764h-310zM293 1509l182 228h203l182 -228h-192l-93 113l-90 -113h-192z" />
<glyph unicode="&#x175;" horiz-adv-x="1153" d="M31 1434h219l121 -1131l108 1131h217l113 -1139l117 1139h196l-159 -1434h-299l-82 764l-82 -764h-310zM293 1509l182 228h203l182 -228h-192l-93 113l-90 -113h-192z" />
<glyph unicode="&#x176;" d="M8 1434h236l172 -654l172 654h215l-285 -959v-475h-225v475zM131 1509l182 228h203l182 -228h-192l-92 113l-90 -113h-193z" />
<glyph unicode="&#x177;" d="M8 1434h236l172 -654l172 654h215l-285 -959v-475h-225v475zM131 1509l182 228h203l182 -228h-192l-92 113l-90 -113h-193z" />
<glyph unicode="&#x178;" d="M8 1434h236l172 -654l172 654h215l-285 -959v-475h-225v475zM160 1509v197h196v-197h-196zM471 1509v197h197v-197h-197z" />
<glyph unicode="&#x179;" horiz-adv-x="757" d="M47 0v201l428 1028h-407v205h639v-201l-428 -1028h428v-205h-660zM262 1509l139 228h222l-209 -228h-152z" />
<glyph unicode="&#x17a;" horiz-adv-x="757" d="M47 0v201l428 1028h-407v205h639v-201l-428 -1028h428v-205h-660zM262 1509l139 228h222l-209 -228h-152z" />
<glyph unicode="&#x17b;" horiz-adv-x="757" d="M47 0v201l428 1028h-407v205h639v-201l-428 -1028h428v-205h-660zM283 1509v197h196v-197h-196z" />
<glyph unicode="&#x17c;" horiz-adv-x="757" d="M47 0v201l428 1028h-407v205h639v-201l-428 -1028h428v-205h-660zM283 1509v197h196v-197h-196z" />
<glyph unicode="&#x17d;" horiz-adv-x="757" d="M47 0v201l428 1028h-407v205h639v-201l-428 -1028h428v-205h-660zM98 1737h193l90 -115l92 115h193l-183 -228h-202z" />
<glyph unicode="&#x17e;" horiz-adv-x="757" d="M47 0v201l428 1028h-407v205h639v-201l-428 -1028h428v-205h-660zM98 1737h193l90 -115l92 115h193l-183 -228h-202z" />
<glyph unicode="&#x1fc;" horiz-adv-x="1187" d="M8 0l383 1434h739v-205h-389v-400h310v-204h-310v-420h389v-205h-614v260h-227l-66 -260h-215zM340 455h176v690zM475 1509l139 228h222l-209 -228h-152z" />
<glyph unicode="&#x1fd;" horiz-adv-x="1187" d="M8 0l383 1434h739v-205h-389v-400h310v-204h-310v-420h389v-205h-614v260h-227l-66 -260h-215zM340 455h176v690zM475 1509l139 228h222l-209 -228h-152z" />
<glyph unicode="&#x1fe;" d="M63 344v746q0 174 88.5 267t254.5 93q123 0 204 -53l41 112l76 -26l-53 -146q74 -90 74 -247v-746q0 -174 -88.5 -267t-253.5 -93q-127 0 -205 51l-41 -111l-76 27l51 143q-72 94 -72 250zM287 1509l139 228h221l-209 -228h-151zM289 514l229 633q-8 53 -37.5 75.5 t-74.5 22.5q-53 0 -85 -31.5t-32 -109.5v-590zM291 287q10 -53 39 -76t76 -23q53 0 84.5 32t31.5 110v590z" />
<glyph unicode="&#x1ff;" d="M63 344v746q0 174 88.5 267t254.5 93q123 0 204 -53l41 112l76 -26l-53 -146q74 -90 74 -247v-746q0 -174 -88.5 -267t-253.5 -93q-127 0 -205 51l-41 -111l-76 27l51 143q-72 94 -72 250zM287 1509l139 228h221l-209 -228h-151zM289 514l229 633q-8 53 -37.5 75.5 t-74.5 22.5q-53 0 -85 -31.5t-32 -109.5v-590zM291 287q10 -53 39 -76t76 -23q53 0 84.5 32t31.5 110v590z" />
<glyph unicode="&#x218;" horiz-adv-x="765" d="M47 344v88h213v-102q0 -78 32 -109t85 -31t85 31t32 109q0 74 -33 130t-82 106t-105.5 100.5t-105.5 110t-82 135.5t-33 178q0 174 83 267t249 93t249 -93t83 -267v-46h-213v60q0 78 -30 109.5t-83 31.5t-82.5 -31.5t-29.5 -109.5q0 -74 32.5 -130t81.5 -106.5 t105.5 -100.5t105.5 -109.5t82 -135.5t33 -178q0 -174 -85 -267t-251 -93t-251 93t-85 267zM283 -68h188v-168l-88 -131h-80l53 111h-73v188z" />
<glyph unicode="&#x219;" horiz-adv-x="765" d="M47 344v88h213v-102q0 -78 32 -109t85 -31t85 31t32 109q0 74 -33 130t-82 106t-105.5 100.5t-105.5 110t-82 135.5t-33 178q0 174 83 267t249 93t249 -93t83 -267v-46h-213v60q0 78 -30 109.5t-83 31.5t-82.5 -31.5t-29.5 -109.5q0 -74 32.5 -130t81.5 -106.5 t105.5 -100.5t105.5 -109.5t82 -135.5t33 -178q0 -174 -85 -267t-251 -93t-251 93t-85 267zM283 -68h188v-168l-88 -131h-80l53 111h-73v188z" />
<glyph unicode="&#x21a;" horiz-adv-x="729" d="M16 1229v205h697v-205h-236v-1229h-225v1229h-236zM270 -68h189v-168l-88 -131h-80l53 111h-74v188z" />
<glyph unicode="&#x21b;" horiz-adv-x="729" d="M16 1229v205h697v-205h-236v-1229h-225v1229h-236zM270 -68h189v-168l-88 -131h-80l53 111h-74v188z" />
<glyph unicode="&#x237;" horiz-adv-x="524" d="M20 0v205q18 -2 39 -2h39q53 0 91 26.5t38 110.5v1094h226v-1078q0 -109 -27 -178t-72 -109t-103 -56.5t-122 -16.5h-55.5t-53.5 4z" />
<glyph unicode="&#x2bc;" horiz-adv-x="380" d="M82 1217v217h217v-195l-98 -227h-92l59 205h-86z" />
<glyph unicode="&#x2c6;" horiz-adv-x="512" d="M-27 1509l183 228h202l183 -228h-193l-92 113l-90 -113h-193z" />
<glyph unicode="&#x2c7;" horiz-adv-x="512" d="M-27 1737h193l90 -115l92 115h193l-183 -228h-202z" />
<glyph unicode="&#x2d8;" horiz-adv-x="512" d="M27 1737h133q4 -59 27.5 -78t66.5 -19q45 0 69.5 18.5t28.5 78.5h133q0 -109 -57 -172.5t-174 -63.5t-171 63.5t-56 172.5z" />
<glyph unicode="&#x2d9;" horiz-adv-x="512" d="M158 1509v197h196v-197h-196z" />
<glyph unicode="&#x2da;" horiz-adv-x="512" d="M92 1667q0 70 47 117t117 47t117 -47t47 -117t-47 -117t-117 -47t-117 47t-47 117zM195 1667q0 -27 17 -44t44 -17t44 17t17 44t-17 44.5t-44 17.5t-44 -17.5t-17 -44.5z" />
<glyph unicode="&#x2db;" horiz-adv-x="512" d="M96 -174q0 109 156 182h88q-45 -35 -58.5 -69.5t-13.5 -57.5q0 -29 21.5 -43t50.5 -14q31 0 44 4t30 8v-115q-35 -14 -66 -18t-74 -4q-82 0 -130 31.5t-48 95.5z" />
<glyph unicode="&#x2dc;" horiz-adv-x="512" d="M-20 1577q29 78 74.5 108.5t99.5 30.5q33 0 56 -8t44.5 -17.5t41 -17.5t42.5 -8q29 0 49.5 10.5t38.5 48.5l109 -75q-29 -78 -75 -109t-100 -31q-33 0 -56 8.5t-44.5 17.5t-41 17.5t-42.5 8.5q-29 0 -49.5 -10.5t-38.5 -49.5z" />
<glyph unicode="&#x2dd;" horiz-adv-x="512" d="M-51 1509l102 228h205l-170 -228h-137zM217 1509l100 228h207l-172 -228h-135z" />
<glyph unicode="&#x401;" horiz-adv-x="753" d="M82 0v1434h614v-205h-389v-400h309v-204h-309v-420h389v-205h-614zM133 1509v197h197v-197h-197zM444 1509v197h197v-197h-197z" />
<glyph unicode="&#x410;" horiz-adv-x="833" d="M23 0l229 1434h330l229 -1434h-227l-39 260h-277l-39 -260h-206zM297 455h217l-108 725z" />
<glyph unicode="&#x411;" horiz-adv-x="849" d="M84 0v1434h631v-205h-406v-367h131q170 0 255 -90t85 -264v-154q0 -174 -85 -264t-255 -90h-356zM309 205h131q53 0 84 28.5t31 106.5v182q0 78 -30.5 106.5t-84.5 28.5h-131v-452z" />
<glyph unicode="&#x412;" horiz-adv-x="831" d="M82 0v1434h340q176 0 255 -82t79 -248v-51q0 -111 -35 -182.5t-111 -106.5q92 -35 130 -114t38 -193v-117q0 -166 -86 -253t-256 -87h-354zM307 205h129q57 0 87 30.5t30 110.5v125q0 100 -34 137t-111 37h-101v-440zM307 850h88q63 0 99 32.5t36 118.5v80 q0 78 -27.5 113t-86.5 35h-109v-379z" />
<glyph unicode="&#x413;" horiz-adv-x="747" d="M84 0v1434h594v-205h-369v-1229h-225z" />
<glyph unicode="&#x414;" horiz-adv-x="999" d="M33 -193v394h88q29 37 40 80t15 106l51 1047h631v-1233h98v-394h-223v193h-481v-193h-219zM334 201h295v1028h-191l-41 -838q-4 -82 -19.5 -123t-43.5 -67z" />
<glyph unicode="&#x415;" horiz-adv-x="753" d="M82 0v1434h614v-205h-389v-400h309v-204h-309v-420h389v-205h-614z" />
<glyph unicode="&#x416;" horiz-adv-x="1236" d="M16 0l279 846l-279 588h226l266 -580v580h223v-580l266 580h226l-277 -582l277 -852h-232l-205 635l-55 -109v-526h-223v526l-55 111l-205 -637h-232z" />
<glyph unicode="&#x417;" d="M70 344v158h213v-172q0 -78 31.5 -110t84.5 -32t85 33t32 129v113q0 100 -35 141t-112 41h-56v205h68q63 0 99 32.5t36 118.5v80q0 96 -31.5 130t-85.5 34q-53 0 -85.5 -31.5t-32.5 -109.5v-117h-207v107q0 174 83 265t249 91t250.5 -93t84.5 -267v-37q0 -229 -157 -295 q86 -37 121.5 -114t35.5 -187v-113q0 -174 -85 -267t-250 -93q-166 0 -251 93t-85 267z" />
<glyph unicode="&#x418;" horiz-adv-x="874" d="M82 0v1434h201v-908l82 316l184 592h248v-1434h-203v1010l-92 -353l-189 -657h-231z" />
<glyph unicode="&#x419;" horiz-adv-x="878" d="M82 0v1434h201v-908l82 316l184 592h248v-1434h-203v1010l-92 -353l-189 -657h-231zM207 1753h139q4 -57 27.5 -75.5t68.5 -18.5q47 0 73 18.5t30 75.5h137q0 -104 -59.5 -165.5t-180.5 -61.5q-119 0 -175 61.5t-60 165.5z" />
<glyph unicode="&#x41a;" horiz-adv-x="847" d="M82 0v1434h225v-625l295 625h225l-313 -639l313 -795h-231l-219 571l-70 -131v-440h-225z" />
<glyph unicode="&#x41b;" horiz-adv-x="921" d="M18 -2v205q39 0 65 4t42 19.5t23.5 45t9.5 78.5l37 1084h636v-1434h-229v1229h-196l-25 -867q-6 -197 -83 -280.5t-245 -83.5h-35z" />
<glyph unicode="&#x41c;" horiz-adv-x="1107" d="M80 0v1434h313l166 -1018l154 1018h313v-1434h-213v1028l-156 -1028h-213l-168 1014v-1014h-196z" />
<glyph unicode="&#x41d;" horiz-adv-x="874" d="M82 0v1434h225v-615h256v615h230v-1434h-230v614h-256v-614h-225z" />
<glyph unicode="&#x41e;" d="M63 344v746q0 174 88.5 267t254.5 93t254 -93t88 -267v-746q0 -174 -88.5 -267t-253.5 -93q-166 0 -254.5 93t-88.5 267zM289 330q0 -78 31.5 -110t85.5 -32q53 0 84.5 32t31.5 110v774q0 78 -31.5 109.5t-84.5 31.5t-85 -31.5t-32 -109.5v-774z" />
<glyph unicode="&#x41f;" horiz-adv-x="874" d="M82 0v1434h711v-1434h-230v1229h-256v-1229h-225z" />
<glyph unicode="&#x420;" horiz-adv-x="772" d="M82 0v1434h332q170 0 253 -90.5t83 -264.5v-186q0 -174 -83 -264t-253 -90h-107v-539h-225zM307 743h107q53 0 81.5 29t28.5 107v215q0 78 -28.5 106.5t-81.5 28.5h-107v-486z" />
<glyph unicode="&#x421;" horiz-adv-x="790" d="M63 344v746q0 174 85 267t251 93t251 -93t85 -267v-140h-213v154q0 78 -31.5 109.5t-84.5 31.5t-85 -31.5t-32 -109.5v-774q0 -78 31.5 -109t85.5 -31q53 0 84.5 31t31.5 109v205h213v-191q0 -174 -85 -267t-251 -93t-251 93t-85 267z" />
<glyph unicode="&#x422;" horiz-adv-x="729" d="M16 1229v205h697v-205h-236v-1229h-225v1229h-236z" />
<glyph unicode="&#x423;" horiz-adv-x="835" d="M16 1434h224l122 -490l70 -336l53 334l103 492h235l-241 -1069q-20 -96 -50 -169t-80.5 -119t-129 -66.5t-195.5 -12.5v201q86 -6 135 16.5t64 99.5l2 13z" />
<glyph unicode="&#x424;" horiz-adv-x="1193" d="M63 516v391q0 174 83 264.5t253 90.5h84v172h222v-172h83q170 0 253 -90.5t83 -264.5v-391q0 -174 -83 -264t-253 -90h-83v-162h-222v162h-84q-170 0 -253 90t-83 264zM287 502q0 -78 29.5 -111t82.5 -33h84v705h-84q-53 0 -82.5 -32t-29.5 -109v-420zM705 358h83 q53 0 83 33t30 111v420q0 78 -29.5 109.5t-83.5 31.5h-83v-705z" />
<glyph unicode="&#x425;" horiz-adv-x="880" d="M31 0l252 737l-236 697h234l170 -529l174 529h209l-236 -697l252 -737h-238l-184 567l-186 -567h-211z" />
<glyph unicode="&#x426;" horiz-adv-x="931" d="M82 0v1434h225v-1229h256v1229h230v-1233h98v-394h-219v193h-590z" />
<glyph unicode="&#x427;" horiz-adv-x="849" d="M68 827v607h225v-588q0 -72 39 -106.5t92 -34.5t85 37.5t32 109.5v582h225v-1434h-225v578q-37 -41 -91.5 -60.5t-101.5 -19.5q-139 0 -209.5 91t-70.5 238z" />
<glyph unicode="&#x428;" horiz-adv-x="1228" d="M82 0v1434h225v-1229h195v1229h225v-1229h195v1229h225v-1434h-1065z" />
<glyph unicode="&#x429;" horiz-adv-x="1288" d="M82 0v1434h225v-1229h195v1229h225v-1229h195v1229h225v-1233h100v-394h-219v193h-946z" />
<glyph unicode="&#x42a;" horiz-adv-x="899" d="M16 1229v205h387v-539h107q170 0 253 -90t83 -264v-187q0 -174 -83 -264t-253 -90h-332v1229h-162zM403 205h107q53 0 82 28.5t29 106.5v215q0 78 -29 106.5t-82 28.5h-107v-485z" />
<glyph unicode="&#x42b;" horiz-adv-x="1185" d="M82 0v1434h225v-539h107q170 0 253 -90t83 -264v-187q0 -174 -83 -264t-253 -90h-332zM307 205h107q53 0 81.5 28.5t28.5 106.5v215q0 78 -28.5 106.5t-81.5 28.5h-107v-485zM879 0v1434h225v-1434h-225z" />
<glyph unicode="&#x42c;" horiz-adv-x="802" d="M82 0v1434h225v-539h107q170 0 253 -90t83 -264v-187q0 -174 -83 -264t-253 -90h-332zM307 205h107q53 0 81.5 28.5t28.5 106.5v215q0 78 -28.5 106.5t-81.5 28.5h-107v-485z" />
<glyph unicode="&#x42d;" horiz-adv-x="790" d="M53 344v170h213v-184q0 -78 32 -109t85 -31t85 31t32 109v309h-207v205h207v260q0 78 -32 109.5t-85 31.5t-85 -31.5t-32 -109.5v-135h-209v121q0 174 83 267t249 93t251 -93t85 -267v-746q0 -174 -85 -267t-251 -93t-251 93t-85 267z" />
<glyph unicode="&#x42e;" horiz-adv-x="1226" d="M82 0v1434h225v-615h168v271q0 174 88 267t254 93t254 -93t88 -267v-746q0 -174 -88 -267t-254 -93t-254 93t-88 267v270h-168v-614h-225zM700 330q0 -78 32 -110t85 -32t85 32t32 110v774q0 78 -32 109.5t-85 31.5t-85 -31.5t-32 -109.5v-774z" />
<glyph unicode="&#x42f;" horiz-adv-x="823" d="M41 0q16 41 20.5 81t4.5 93v221q0 113 31.5 192t117.5 113q-147 70 -147 291v113q0 166 78.5 248t254.5 82h340v-1434h-225v584h-78q-78 0 -112.5 -41t-34.5 -142v-225q0 -43 -1 -71.5t-4 -47t-7.5 -31t-8.5 -26.5h-229zM293 940q0 -86 36 -119t99 -33h88v441h-108 q-59 0 -87 -35t-28 -113v-141z" />
<glyph unicode="&#x430;" horiz-adv-x="833" d="M23 0l229 1434h330l229 -1434h-227l-39 260h-277l-39 -260h-206zM297 455h217l-108 725z" />
<glyph unicode="&#x431;" horiz-adv-x="849" d="M84 0v1434h631v-205h-406v-367h131q170 0 255 -90t85 -264v-154q0 -174 -85 -264t-255 -90h-356zM309 205h131q53 0 84 28.5t31 106.5v182q0 78 -30.5 106.5t-84.5 28.5h-131v-452z" />
<glyph unicode="&#x432;" horiz-adv-x="831" d="M82 0v1434h340q176 0 255 -82t79 -248v-51q0 -111 -35 -182.5t-111 -106.5q92 -35 130 -114t38 -193v-117q0 -166 -86 -253t-256 -87h-354zM307 205h129q57 0 87 30.5t30 110.5v125q0 100 -34 137t-111 37h-101v-440zM307 850h88q63 0 99 32.5t36 118.5v80 q0 78 -27.5 113t-86.5 35h-109v-379z" />
<glyph unicode="&#x433;" horiz-adv-x="747" d="M84 0v1434h594v-205h-369v-1229h-225z" />
<glyph unicode="&#x434;" horiz-adv-x="999" d="M33 -193v394h88q29 37 40 80t15 106l51 1047h631v-1233h98v-394h-223v193h-481v-193h-219zM334 201h295v1028h-191l-41 -838q-4 -82 -19.5 -123t-43.5 -67z" />
<glyph unicode="&#x435;" horiz-adv-x="753" d="M82 0v1434h614v-205h-389v-400h309v-204h-309v-420h389v-205h-614z" />
<glyph unicode="&#x436;" horiz-adv-x="1236" d="M16 0l279 846l-279 588h226l266 -580v580h223v-580l266 580h226l-277 -582l277 -852h-232l-205 635l-55 -109v-526h-223v526l-55 111l-205 -637h-232z" />
<glyph unicode="&#x437;" d="M70 344v158h213v-172q0 -78 31.5 -110t84.5 -32t85 33t32 129v113q0 100 -35 141t-112 41h-56v205h68q63 0 99 32.5t36 118.5v80q0 96 -31.5 130t-85.5 34q-53 0 -85.5 -31.5t-32.5 -109.5v-117h-207v107q0 174 83 265t249 91t250.5 -93t84.5 -267v-37q0 -229 -157 -295 q86 -37 121.5 -114t35.5 -187v-113q0 -174 -85 -267t-250 -93q-166 0 -251 93t-85 267z" />
<glyph unicode="&#x438;" horiz-adv-x="874" d="M82 0v1434h201v-908l82 316l184 592h248v-1434h-203v1010l-92 -353l-189 -657h-231z" />
<glyph unicode="&#x439;" horiz-adv-x="878" d="M82 0v1434h201v-908l82 316l184 592h248v-1434h-203v1010l-92 -353l-189 -657h-231zM207 1753h139q4 -57 27.5 -75.5t68.5 -18.5q47 0 73 18.5t30 75.5h137q0 -104 -59.5 -165.5t-180.5 -61.5q-119 0 -175 61.5t-60 165.5z" />
<glyph unicode="&#x43a;" horiz-adv-x="847" d="M82 0v1434h225v-625l295 625h225l-313 -639l313 -795h-231l-219 571l-70 -131v-440h-225z" />
<glyph unicode="&#x43b;" horiz-adv-x="921" d="M18 -2v205q39 0 65 4t42 19.5t23.5 45t9.5 78.5l37 1084h636v-1434h-229v1229h-196l-25 -867q-6 -197 -83 -280.5t-245 -83.5h-35z" />
<glyph unicode="&#x43c;" horiz-adv-x="1107" d="M80 0v1434h313l166 -1018l154 1018h313v-1434h-213v1028l-156 -1028h-213l-168 1014v-1014h-196z" />
<glyph unicode="&#x43d;" horiz-adv-x="874" d="M82 0v1434h225v-615h256v615h230v-1434h-230v614h-256v-614h-225z" />
<glyph unicode="&#x43e;" d="M63 344v746q0 174 88.5 267t254.5 93t254 -93t88 -267v-746q0 -174 -88.5 -267t-253.5 -93q-166 0 -254.5 93t-88.5 267zM289 330q0 -78 31.5 -110t85.5 -32q53 0 84.5 32t31.5 110v774q0 78 -31.5 109.5t-84.5 31.5t-85 -31.5t-32 -109.5v-774z" />
<glyph unicode="&#x43f;" horiz-adv-x="874" d="M82 0v1434h711v-1434h-230v1229h-256v-1229h-225z" />
<glyph unicode="&#x440;" horiz-adv-x="772" d="M82 0v1434h332q170 0 253 -90.5t83 -264.5v-186q0 -174 -83 -264t-253 -90h-107v-539h-225zM307 743h107q53 0 81.5 29t28.5 107v215q0 78 -28.5 106.5t-81.5 28.5h-107v-486z" />
<glyph unicode="&#x441;" horiz-adv-x="790" d="M63 344v746q0 174 85 267t251 93t251 -93t85 -267v-140h-213v154q0 78 -31.5 109.5t-84.5 31.5t-85 -31.5t-32 -109.5v-774q0 -78 31.5 -109t85.5 -31q53 0 84.5 31t31.5 109v205h213v-191q0 -174 -85 -267t-251 -93t-251 93t-85 267z" />
<glyph unicode="&#x442;" horiz-adv-x="729" d="M16 1229v205h697v-205h-236v-1229h-225v1229h-236z" />
<glyph unicode="&#x443;" horiz-adv-x="835" d="M16 1434h224l122 -490l70 -336l53 334l103 492h235l-241 -1069q-20 -96 -50 -169t-80.5 -119t-129 -66.5t-195.5 -12.5v201q86 -6 135 16.5t64 99.5l2 13z" />
<glyph unicode="&#x444;" horiz-adv-x="1193" d="M63 516v391q0 174 83 264.5t253 90.5h84v172h222v-172h83q170 0 253 -90.5t83 -264.5v-391q0 -174 -83 -264t-253 -90h-83v-162h-222v162h-84q-170 0 -253 90t-83 264zM287 502q0 -78 29.5 -111t82.5 -33h84v705h-84q-53 0 -82.5 -32t-29.5 -109v-420zM705 358h83 q53 0 83 33t30 111v420q0 78 -29.5 109.5t-83.5 31.5h-83v-705z" />
<glyph unicode="&#x445;" horiz-adv-x="880" d="M31 0l252 737l-236 697h234l170 -529l174 529h209l-236 -697l252 -737h-238l-184 567l-186 -567h-211z" />
<glyph unicode="&#x446;" horiz-adv-x="931" d="M82 0v1434h225v-1229h256v1229h230v-1233h98v-394h-219v193h-590z" />
<glyph unicode="&#x447;" horiz-adv-x="849" d="M68 827v607h225v-588q0 -72 39 -106.5t92 -34.5t85 37.5t32 109.5v582h225v-1434h-225v578q-37 -41 -91.5 -60.5t-101.5 -19.5q-139 0 -209.5 91t-70.5 238z" />
<glyph unicode="&#x448;" horiz-adv-x="1228" d="M82 0v1434h225v-1229h195v1229h225v-1229h195v1229h225v-1434h-1065z" />
<glyph unicode="&#x449;" horiz-adv-x="1288" d="M82 0v1434h225v-1229h195v1229h225v-1229h195v1229h225v-1233h100v-394h-219v193h-946z" />
<glyph unicode="&#x44a;" horiz-adv-x="899" d="M16 1229v205h387v-539h107q170 0 253 -90t83 -264v-187q0 -174 -83 -264t-253 -90h-332v1229h-162zM403 205h107q53 0 82 28.5t29 106.5v215q0 78 -29 106.5t-82 28.5h-107v-485z" />
<glyph unicode="&#x44b;" horiz-adv-x="1185" d="M82 0v1434h225v-539h107q170 0 253 -90t83 -264v-187q0 -174 -83 -264t-253 -90h-332zM307 205h107q53 0 81.5 28.5t28.5 106.5v215q0 78 -28.5 106.5t-81.5 28.5h-107v-485zM879 0v1434h225v-1434h-225z" />
<glyph unicode="&#x44c;" horiz-adv-x="802" d="M82 0v1434h225v-539h107q170 0 253 -90t83 -264v-187q0 -174 -83 -264t-253 -90h-332zM307 205h107q53 0 81.5 28.5t28.5 106.5v215q0 78 -28.5 106.5t-81.5 28.5h-107v-485z" />
<glyph unicode="&#x44d;" horiz-adv-x="790" d="M53 344v170h213v-184q0 -78 32 -109t85 -31t85 31t32 109v309h-207v205h207v260q0 78 -32 109.5t-85 31.5t-85 -31.5t-32 -109.5v-135h-209v121q0 174 83 267t249 93t251 -93t85 -267v-746q0 -174 -85 -267t-251 -93t-251 93t-85 267z" />
<glyph unicode="&#x44e;" horiz-adv-x="1226" d="M82 0v1434h225v-615h168v271q0 174 88 267t254 93t254 -93t88 -267v-746q0 -174 -88 -267t-254 -93t-254 93t-88 267v270h-168v-614h-225zM700 330q0 -78 32 -110t85 -32t85 32t32 110v774q0 78 -32 109.5t-85 31.5t-85 -31.5t-32 -109.5v-774z" />
<glyph unicode="&#x44f;" horiz-adv-x="823" d="M41 0q16 41 20.5 81t4.5 93v221q0 113 31.5 192t117.5 113q-147 70 -147 291v113q0 166 78.5 248t254.5 82h340v-1434h-225v584h-78q-78 0 -112.5 -41t-34.5 -142v-225q0 -43 -1 -71.5t-4 -47t-7.5 -31t-8.5 -26.5h-229zM293 940q0 -86 36 -119t99 -33h88v441h-108 q-59 0 -87 -35t-28 -113v-141z" />
<glyph unicode="&#x451;" horiz-adv-x="753" d="M82 0v1434h614v-205h-389v-400h309v-204h-309v-420h389v-205h-614zM133 1509v197h197v-197h-197zM444 1509v197h197v-197h-197z" />
<glyph unicode="&#x1e02;" horiz-adv-x="831" d="M82 0v1434h340q176 0 255 -82t79 -248v-51q0 -111 -35 -182.5t-111 -106.5q92 -35 130 -114t38 -193v-117q0 -166 -86 -253t-256 -87h-354zM283 1509v197h196v-197h-196zM307 205h129q57 0 87 30.5t30 110.5v125q0 100 -34 137t-111 37h-101v-440zM307 850h88 q63 0 99 32.5t36 118.5v80q0 78 -27.5 113t-86.5 35h-109v-379z" />
<glyph unicode="&#x1e03;" horiz-adv-x="831" d="M82 0v1434h340q176 0 255 -82t79 -248v-51q0 -111 -35 -182.5t-111 -106.5q92 -35 130 -114t38 -193v-117q0 -166 -86 -253t-256 -87h-354zM283 1509v197h196v-197h-196zM307 205h129q57 0 87 30.5t30 110.5v125q0 100 -34 137t-111 37h-101v-440zM307 850h88 q63 0 99 32.5t36 118.5v80q0 78 -27.5 113t-86.5 35h-109v-379z" />
<glyph unicode="&#x1e0a;" horiz-adv-x="835" d="M82 0v1434h356q170 0 253 -90.5t83 -264.5v-725q0 -174 -83 -264t-253 -90h-356zM299 1509v197h197v-197h-197zM307 205h127q53 0 84 30.5t31 108.5v746q0 78 -31 108.5t-84 30.5h-127v-1024z" />
<glyph unicode="&#x1e0b;" horiz-adv-x="835" d="M82 0v1434h356q170 0 253 -90.5t83 -264.5v-725q0 -174 -83 -264t-253 -90h-356zM299 1509v197h197v-197h-197zM307 205h127q53 0 84 30.5t31 108.5v746q0 78 -31 108.5t-84 30.5h-127v-1024z" />
<glyph unicode="&#x1e1e;" horiz-adv-x="704" d="M82 0v1434h596v-205h-371v-432h291v-205h-291v-592h-225zM274 1509v197h197v-197h-197z" />
<glyph unicode="&#x1e1f;" horiz-adv-x="704" d="M82 0v1434h596v-205h-371v-432h291v-205h-291v-592h-225zM274 1509v197h197v-197h-197z" />
<glyph unicode="&#x1e40;" horiz-adv-x="1107" d="M80 0v1434h313l166 -1018l154 1018h313v-1434h-213v1028l-156 -1028h-213l-168 1014v-1014h-196zM455 1509v197h196v-197h-196z" />
<glyph unicode="&#x1e41;" horiz-adv-x="1107" d="M80 0v1434h313l166 -1018l154 1018h313v-1434h-213v1028l-156 -1028h-213l-168 1014v-1014h-196zM455 1509v197h196v-197h-196z" />
<glyph unicode="&#x1e56;" horiz-adv-x="772" d="M82 0v1434h332q170 0 253 -90.5t83 -264.5v-186q0 -174 -83 -264t-253 -90h-107v-539h-225zM291 1509v197h196v-197h-196zM307 743h107q53 0 81.5 29t28.5 107v215q0 78 -28.5 106.5t-81.5 28.5h-107v-486z" />
<glyph unicode="&#x1e57;" horiz-adv-x="772" d="M82 0v1434h332q170 0 253 -90.5t83 -264.5v-186q0 -174 -83 -264t-253 -90h-107v-539h-225zM291 1509v197h196v-197h-196zM307 743h107q53 0 81.5 29t28.5 107v215q0 78 -28.5 106.5t-81.5 28.5h-107v-486z" />
<glyph unicode="&#x1e60;" horiz-adv-x="765" d="M47 344v88h213v-102q0 -78 32 -109t85 -31t85 31t32 109q0 74 -33 130t-82 106t-105.5 100.5t-105.5 110t-82 135.5t-33 178q0 174 83 267t249 93t249 -93t83 -267v-46h-213v60q0 78 -30 109.5t-83 31.5t-82.5 -31.5t-29.5 -109.5q0 -74 32.5 -130t81.5 -106.5 t105.5 -100.5t105.5 -109.5t82 -135.5t33 -178q0 -174 -85 -267t-251 -93t-251 93t-85 267zM285 1509v197h196v-197h-196z" />
<glyph unicode="&#x1e61;" horiz-adv-x="765" d="M47 344v88h213v-102q0 -78 32 -109t85 -31t85 31t32 109q0 74 -33 130t-82 106t-105.5 100.5t-105.5 110t-82 135.5t-33 178q0 174 83 267t249 93t249 -93t83 -267v-46h-213v60q0 78 -30 109.5t-83 31.5t-82.5 -31.5t-29.5 -109.5q0 -74 32.5 -130t81.5 -106.5 t105.5 -100.5t105.5 -109.5t82 -135.5t33 -178q0 -174 -85 -267t-251 -93t-251 93t-85 267zM285 1509v197h196v-197h-196z" />
<glyph unicode="&#x1e6a;" horiz-adv-x="729" d="M16 1229v205h697v-205h-236v-1229h-225v1229h-236zM266 1509v197h197v-197h-197z" />
<glyph unicode="&#x1e6b;" horiz-adv-x="729" d="M16 1229v205h697v-205h-236v-1229h-225v1229h-236zM266 1509v197h197v-197h-197z" />
<glyph unicode="&#x1e80;" horiz-adv-x="1153" d="M31 1434h219l121 -1131l108 1131h217l113 -1139l117 1139h196l-159 -1434h-299l-82 764l-82 -764h-310zM330 1737h231l139 -228h-161z" />
<glyph unicode="&#x1e81;" horiz-adv-x="1153" d="M31 1434h219l121 -1131l108 1131h217l113 -1139l117 1139h196l-159 -1434h-299l-82 764l-82 -764h-310zM330 1737h231l139 -228h-161z" />
<glyph unicode="&#x1e82;" horiz-adv-x="1153" d="M31 1434h219l121 -1131l108 1131h217l113 -1139l117 1139h196l-159 -1434h-299l-82 764l-82 -764h-310zM457 1509l139 228h221l-209 -228h-151z" />
<glyph unicode="&#x1e83;" horiz-adv-x="1153" d="M31 1434h219l121 -1131l108 1131h217l113 -1139l117 1139h196l-159 -1434h-299l-82 764l-82 -764h-310zM457 1509l139 228h221l-209 -228h-151z" />
<glyph unicode="&#x1e84;" horiz-adv-x="1153" d="M31 1434h219l121 -1131l108 1131h217l113 -1139l117 1139h196l-159 -1434h-299l-82 764l-82 -764h-310zM322 1509v197h196v-197h-196zM633 1509v197h196v-197h-196z" />
<glyph unicode="&#x1e85;" horiz-adv-x="1153" d="M31 1434h219l121 -1131l108 1131h217l113 -1139l117 1139h196l-159 -1434h-299l-82 764l-82 -764h-310zM322 1509v197h196v-197h-196zM633 1509v197h196v-197h-196z" />
<glyph unicode="&#x1ef2;" d="M8 1434h236l172 -654l172 654h215l-285 -959v-475h-225v475zM168 1737h231l140 -228h-162z" />
<glyph unicode="&#x1ef3;" d="M8 1434h236l172 -654l172 654h215l-285 -959v-475h-225v475zM168 1737h231l140 -228h-162z" />
<glyph unicode="&#x2000;" horiz-adv-x="915" />
<glyph unicode="&#x2001;" horiz-adv-x="1831" />
<glyph unicode="&#x2002;" horiz-adv-x="915" />
<glyph unicode="&#x2003;" horiz-adv-x="1831" />
<glyph unicode="&#x2004;" horiz-adv-x="610" />
<glyph unicode="&#x2005;" horiz-adv-x="457" />
<glyph unicode="&#x2006;" horiz-adv-x="305" />
<glyph unicode="&#x2007;" horiz-adv-x="305" />
<glyph unicode="&#x2008;" horiz-adv-x="228" />
<glyph unicode="&#x2009;" horiz-adv-x="366" />
<glyph unicode="&#x200a;" horiz-adv-x="101" />
<glyph unicode="&#x2010;" horiz-adv-x="552" d="M72 614v205h409v-205h-409z" />
<glyph unicode="&#x2011;" horiz-adv-x="552" d="M72 614v205h409v-205h-409z" />
<glyph unicode="&#x2012;" d="M0 625v184h811v-184h-811z" />
<glyph unicode="&#x2013;" horiz-adv-x="1024" d="M0 625v184h1024v-184h-1024z" />
<glyph unicode="&#x2014;" horiz-adv-x="2048" d="M0 625v184h2048v-184h-2048z" />
<glyph unicode="&#x2018;" horiz-adv-x="380" d="M82 1012v194l98 228h92l-59 -205h86v-217h-217z" />
<glyph unicode="&#x2019;" horiz-adv-x="380" d="M82 1217v217h217v-195l-98 -227h-92l59 205h-86z" />
<glyph unicode="&#x201a;" horiz-adv-x="380" d="M82 0v217h217v-194l-98 -228h-92l59 205h-86z" />
<glyph unicode="&#x201c;" horiz-adv-x="679" d="M82 1012v194l98 228h92l-59 -205h86v-217h-217zM381 1012v194l98 228h92l-59 -205h86v-217h-217z" />
<glyph unicode="&#x201d;" horiz-adv-x="679" d="M82 1217v217h217v-195l-98 -227h-92l59 205h-86zM381 1217v217h217v-195l-98 -227h-92l59 205h-86z" />
<glyph unicode="&#x201e;" horiz-adv-x="679" d="M82 0v217h217v-194l-98 -228h-92l59 205h-86zM381 0v217h217v-194l-98 -228h-92l59 205h-86z" />
<glyph unicode="&#x2020;" d="M51 901v174h262v359h185v-359h262v-174h-262v-1034h-185v1034h-262z" />
<glyph unicode="&#x2021;" d="M51 225v174h262v502h-262v174h262v359h185v-359h262v-174h-262v-502h262v-174h-262v-358h-185v358h-262z" />
<glyph unicode="&#x2022;" d="M121 717q0 59 22.5 111.5t60.5 90t90 60t112 22.5q59 0 111 -22.5t90 -60t60.5 -90t22.5 -111.5t-22.5 -111.5t-60.5 -90.5t-90 -60.5t-111 -22.5t-111.5 22.5t-90.5 60.5t-60.5 90.5t-22.5 111.5z" />
<glyph unicode="&#x2026;" horiz-adv-x="978" d="M82 0v217h217v-217h-217zM381 0v217h217v-217h-217zM680 0v217h217v-217h-217z" />
<glyph unicode="&#x202f;" horiz-adv-x="366" />
<glyph unicode="&#x2030;" horiz-adv-x="1808" d="M70 743v471q0 111 55 170.5t162 59.5q106 0 161.5 -59.5t55.5 -170.5v-471q0 -111 -55.5 -170t-161.5 -59t-161.5 59.5t-55.5 169.5zM213 733q0 -90 74 -90q35 0 54 21.5t19 68.5v492q0 47 -19 68.5t-54 21.5q-74 0 -74 -90v-492zM287 0l565 1434h133l-565 -1434h-133z M780 219v471q0 111 55.5 170.5t161.5 59.5t161.5 -59.5t55.5 -170.5v-471q0 -111 -55 -170t-162 -59q-106 0 -161.5 59.5t-55.5 169.5zM924 209q0 -90 73 -90q35 0 54.5 21.5t19.5 68.5v491q0 47 -19.5 69t-54.5 22q-74 0 -73 -91v-491zM1305 219v471q0 111 55 170.5 t162 59.5q106 0 161.5 -59.5t55.5 -170.5v-471q0 -111 -55.5 -170t-161.5 -59t-161.5 59.5t-55.5 169.5zM1448 209q0 -90 74 -90q35 0 54 21.5t19 68.5v491q0 47 -19.5 69t-53.5 22q-74 0 -74 -91v-491z" />
<glyph unicode="&#x2039;" horiz-adv-x="401" d="M33 719l123 545h213l-121 -545l121 -578h-213z" />
<glyph unicode="&#x203a;" horiz-adv-x="401" d="M33 141l121 578l-121 545h213l123 -545l-123 -578h-213z" />
<glyph unicode="&#x2044;" horiz-adv-x="137" d="M-281 0l566 1434h133l-565 -1434h-134z" />
<glyph unicode="&#x205f;" horiz-adv-x="457" />
<glyph unicode="&#x2070;" horiz-adv-x="573" d="M70 938v471q0 111 55 170t162 59q106 0 161.5 -59t55.5 -170v-471q0 -111 -55.5 -170t-161.5 -59t-161.5 59t-55.5 170zM213 928q0 -90 74 -90q35 0 54 21.5t19 68.5v491q0 47 -19 68.5t-54 21.5q-74 0 -74 -90v-491z" />
<glyph unicode="&#x2074;" horiz-adv-x="573" d="M49 883v131l260 614h156v-614h67v-131h-67v-164h-141v164h-275zM178 1014h146v336z" />
<glyph unicode="&#x2075;" horiz-adv-x="573" d="M76 934v76h135v-84q0 -49 19.5 -68.5t54.5 -19.5t54 19.5t19 68.5v198q0 49 -19.5 69.5t-53.5 20.5q-35 0 -54.5 -20t-19.5 -70v-26h-135l26 528h377v-131h-250l-10 -217q39 68 125 68q78 0 118 -54.5t40 -154.5v-203q0 -111 -53.5 -170t-159.5 -59t-159.5 59t-53.5 170z " />
<glyph unicode="&#x2076;" horiz-adv-x="573" d="M74 938v465q0 115 53 175t166 60q104 0 158.5 -59t54.5 -170v-23h-135v33q0 49 -19.5 69.5t-54.5 20.5q-39 0 -59.5 -23.5t-20.5 -88.5v-166q39 80 133 80q78 0 118 -53.5t40 -153.5v-166q0 -111 -55.5 -170t-161.5 -59t-161.5 59t-55.5 170zM217 928q0 -49 19.5 -68.5 t54.5 -19.5t54.5 19.5t19.5 68.5v164q0 49 -19.5 69.5t-54.5 20.5t-54.5 -20.5t-19.5 -69.5v-164z" />
<glyph unicode="&#x2077;" horiz-adv-x="573" d="M72 1499v129h430v-125l-211 -784h-144l209 780h-284z" />
<glyph unicode="&#x2078;" horiz-adv-x="573" d="M63 938v70q0 66 20.5 114.5t68.5 75.5q-88 49 -89 182v29q0 111 57.5 170t166.5 59t166 -59t57 -170v-29q0 -133 -88 -182q47 -27 67.5 -76t20.5 -114v-70q0 -111 -57.5 -170t-165.5 -59q-109 0 -166.5 59t-57.5 170zM207 940q0 -59 22.5 -80.5t57.5 -21.5t57.5 21.5 t22.5 80.5v86q0 102 -80 102t-80 -102v-86zM207 1354q0 -53 22.5 -75t57.5 -22t57.5 21.5t22.5 75.5v51q0 61 -22.5 82.5t-57.5 21.5t-57.5 -21.5t-22.5 -82.5v-51z" />
<glyph unicode="&#x2079;" horiz-adv-x="573" d="M66 1243v166q0 111 55 170t162 59q106 0 161.5 -59t55.5 -170v-465q0 -115 -53.5 -175t-165.5 -60q-104 0 -158.5 59t-54.5 170v23h135v-33q0 -49 19.5 -69.5t53.5 -20.5q39 0 59.5 23.5t20.5 88.5v166q-39 -80 -133 -80q-78 0 -117.5 53.5t-39.5 153.5zM209 1255 q0 -49 19.5 -69.5t54.5 -20.5t54 20.5t19 69.5v164q0 49 -19.5 68.5t-53.5 19.5q-35 0 -54.5 -19.5t-19.5 -68.5v-164z" />
<glyph unicode="&#x2080;" horiz-adv-x="573" d="M70 86v471q0 111 55 170t162 59q106 0 161.5 -59t55.5 -170v-471q0 -111 -55.5 -170t-161.5 -59t-161.5 59t-55.5 170zM213 76q0 -90 74 -90q35 0 54 21.5t19 68.5v491q0 47 -19 68.5t-54 21.5q-74 0 -74 -90v-491z" />
<glyph unicode="&#x2081;" horiz-adv-x="409" d="M51 561v101q41 0 67.5 9t44 24.5t28 37t20.5 43.5h94v-909h-143v694h-111z" />
<glyph unicode="&#x2082;" horiz-adv-x="573" d="M86 -23q0 66 20.5 117t52 93t68.5 81t69 81t52.5 92t20.5 116q0 59 -19.5 80.5t-54.5 21.5t-54.5 -20.5t-19.5 -69.5v-96h-135v88q0 111 53.5 169t159.5 58t159.5 -58t53.5 -169q0 -74 -22.5 -134t-56.5 -109.5t-72.5 -91.5t-70.5 -79.5t-50.5 -74.5t-10.5 -76h271v-129 h-414v110z" />
<glyph unicode="&#x2083;" horiz-adv-x="573" d="M74 86v74h135v-84q0 -47 19.5 -68.5t54.5 -21.5t54 21.5t19 82.5v70q0 66 -22.5 90t-69.5 24h-49v129h55q41 0 63.5 23t22.5 76v51q0 61 -19.5 82.5t-53.5 21.5q-35 0 -54.5 -21.5t-19.5 -68.5v-57h-135v47q0 111 53 170t160 59q106 0 159.5 -59t53.5 -170v-22 q0 -145 -101 -187q53 -23 77 -72t24 -118v-72q0 -111 -53.5 -170t-159.5 -59t-159.5 59t-53.5 170z" />
<glyph unicode="&#x2084;" horiz-adv-x="573" d="M49 31v131l260 614h156v-614h67v-131h-67v-164h-141v164h-275zM178 162h146v336z" />
<glyph unicode="&#x2085;" horiz-adv-x="573" d="M76 82v76h135v-84q0 -49 19.5 -68.5t54.5 -19.5t54 19.5t19 68.5v198q0 49 -19.5 69.5t-53.5 20.5q-35 0 -54.5 -20t-19.5 -70v-26h-135l26 528h377v-131h-250l-10 -217q39 68 125 68q78 0 118 -54.5t40 -154.5v-203q0 -111 -53.5 -170t-159.5 -59t-159.5 59t-53.5 170z " />
<glyph unicode="&#x2086;" horiz-adv-x="573" d="M74 86v465q0 115 53 175t166 60q104 0 158.5 -59t54.5 -170v-22h-135v32q0 49 -19.5 69.5t-54.5 20.5q-39 0 -59.5 -23.5t-20.5 -88.5v-166q39 80 133 80q78 0 118 -53.5t40 -153.5v-166q0 -111 -55.5 -170t-161.5 -59t-161.5 59t-55.5 170zM217 76q0 -49 19.5 -68.5 t54.5 -19.5t54.5 19.5t19.5 68.5v164q0 49 -19.5 69.5t-54.5 20.5t-54.5 -20.5t-19.5 -69.5v-164z" />
<glyph unicode="&#x2087;" horiz-adv-x="573" d="M72 647v129h430v-125l-211 -784h-144l209 780h-284z" />
<glyph unicode="&#x2088;" horiz-adv-x="573" d="M63 86v70q0 66 20.5 114.5t68.5 75.5q-88 49 -89 182v29q0 111 57.5 170t166.5 59t166 -59t57 -170v-29q0 -133 -88 -182q47 -27 67.5 -76t20.5 -114v-70q0 -111 -57.5 -170t-165.5 -59q-109 0 -166.5 59t-57.5 170zM207 88q0 -59 22.5 -80.5t57.5 -21.5t57.5 21.5 t22.5 80.5v86q0 102 -80 102t-80 -102v-86zM207 502q0 -53 22.5 -74.5t57.5 -21.5t57.5 21.5t22.5 74.5v51q0 61 -22.5 82.5t-57.5 21.5t-57.5 -21.5t-22.5 -82.5v-51z" />
<glyph unicode="&#x2089;" horiz-adv-x="573" d="M66 391v166q0 111 55 170t162 59q106 0 161.5 -59t55.5 -170v-465q0 -115 -53.5 -175t-165.5 -60q-104 0 -158.5 59t-54.5 170v23h135v-33q0 -49 19.5 -69.5t53.5 -20.5q39 0 59.5 23.5t20.5 88.5v166q-39 -80 -133 -80q-78 0 -117.5 53.5t-39.5 153.5zM209 403 q0 -49 19.5 -69.5t54.5 -20.5t54 20.5t19 69.5v164q0 49 -19.5 68.5t-53.5 19.5q-35 0 -54.5 -19.5t-19.5 -68.5v-164z" />
<glyph unicode="&#x20ac;" d="M39 553v113h57v112h-57v113h57v199q0 174 82 267t248 93t248 -93t82 -267v-105h-213v119q0 78 -29 109.5t-82 31.5t-81.5 -31.5t-28.5 -109.5v-213h315v-113h-315v-112h315v-113h-315v-223q0 -78 28.5 -109t81.5 -31t82 31t29 109v129h213v-115q0 -174 -82 -267t-248 -93 t-248 93t-82 267v209h-57z" />
<glyph unicode="&#x20b9;" d="M53 641v174h189q86 0 129 28.5t43 106.5h-361v174h361q0 78 -43 107t-129 29h-189v174h705v-174h-172q39 -57 51 -136h121v-174h-121q-6 -74 -35 -131t-73 -97t-102 -60.5t-124 -20.5h-10l477 -641h-242z" />
<glyph unicode="&#x2117;" horiz-adv-x="1507" d="M41 717q0 160 54.5 294t149.5 232t226 152.5t283 54.5t282.5 -54.5t226 -152.5t149.5 -232t54 -294t-54 -294t-149.5 -232.5t-226.5 -152.5t-282 -54q-152 0 -283 54t-226 152.5t-149.5 232.5t-54.5 294zM188 717q0 -129 43 -236.5t119 -186.5t179.5 -123t224.5 -44 t224 44t179 123t119 186.5t43 236.5t-43 236.5t-119 186.5t-179.5 123t-223.5 44q-121 0 -224.5 -44t-179.5 -123t-119 -186.5t-43 -236.5zM563 260v877h238q121 0 176 -56.5t55 -173.5v-114q0 -117 -55 -173.5t-176 -56.5h-82v-303h-156zM719 707h74q84 0 84 104v78 q0 104 -84 104h-74v-286z" />
<glyph unicode="&#x2122;" horiz-adv-x="1200" d="M20 1303v131h443v-131h-150v-598h-143v598h-150zM549 705v729h199l106 -512l96 512h199v-729h-135v518l-96 -518h-136l-108 514v-514h-125z" />
<glyph unicode="&#x2153;" horiz-adv-x="1284" d="M133 1219v100q41 0 67.5 9t44 24.5t28 37t20.5 44.5h94v-910h-143v695h-111zM266 0l565 1434h134l-566 -1434h-133zM784 219v74h136v-84q0 -47 19 -68.5t54 -21.5t54.5 21.5t19.5 82.5v70q0 66 -22.5 90.5t-69.5 24.5h-49v129h55q41 0 63.5 22.5t22.5 75.5v51 q0 61 -19.5 83t-54.5 22t-54 -21.5t-19 -69.5v-57h-136v47q0 111 53.5 170.5t159.5 59.5t159.5 -59.5t53.5 -170.5v-22q0 -145 -100 -187q53 -23 76.5 -72t23.5 -118v-72q0 -111 -53 -170t-160 -59q-106 0 -159.5 59.5t-53.5 169.5z" />
<glyph unicode="&#x2154;" horiz-adv-x="1284" d="M86 522v111q0 66 20.5 117t52 93t68.5 81t69 81t52.5 91.5t20.5 115.5q0 59 -19.5 81t-54.5 22t-54.5 -20.5t-19.5 -69.5v-97h-135v89q0 111 53.5 169t159.5 58t159.5 -58.5t53.5 -168.5q0 -76 -22.5 -135.5t-56.5 -108.5t-72.5 -91t-70.5 -80t-50.5 -75t-10.5 -76h271 v-129h-414zM313 0l566 1434h133l-566 -1434h-133zM784 219v74h136v-84q0 -47 19 -68.5t54 -21.5t54.5 21.5t19.5 82.5v70q0 66 -22.5 90.5t-69.5 24.5h-49v129h55q41 0 63.5 22.5t22.5 75.5v51q0 61 -19.5 83t-54.5 22t-54 -21.5t-19 -69.5v-57h-136v47q0 111 53.5 170.5 t159.5 59.5t159.5 -59.5t53.5 -170.5v-22q0 -145 -100 -187q53 -23 76.5 -72t23.5 -118v-72q0 -111 -53 -170t-160 -59q-106 0 -159.5 59.5t-53.5 169.5z" />
<glyph unicode="&#x215b;" horiz-adv-x="1284" d="M133 1219v100q41 0 67.5 9t44 24.5t28 37t20.5 44.5h94v-910h-143v695h-111zM266 0l565 1434h134l-566 -1434h-133zM774 219v70q0 66 20.5 115t67.5 75q-88 49 -88 183v28q0 111 57.5 170.5t165.5 59.5q109 0 166.5 -59.5t57.5 -170.5v-28q0 -133 -88 -183 q47 -27 67.5 -76t20.5 -114v-70q0 -111 -57.5 -170t-166.5 -59t-166 59.5t-57 169.5zM918 221q0 -59 22.5 -80.5t56.5 -21.5q35 0 57.5 21.5t22.5 80.5v86q0 102 -80 103q-80 0 -79 -103v-86zM918 635q0 -53 22.5 -74.5t56.5 -21.5q35 0 57.5 21.5t22.5 74.5v51 q0 61 -22.5 83t-57.5 22t-57 -21.5t-22 -83.5v-51z" />
<glyph unicode="&#x215c;" horiz-adv-x="1284" d="M74 743v74h135v-84q0 -47 19.5 -68.5t54.5 -21.5t54 21.5t19 83.5v69q0 66 -22.5 90.5t-69.5 24.5h-49v129h55q41 0 63.5 22.5t22.5 75.5v51q0 61 -19.5 83t-53.5 22q-35 0 -54.5 -21.5t-19.5 -68.5v-58h-135v47q0 111 53 170.5t160 59.5q106 0 159.5 -59.5t53.5 -170.5 v-22q0 -145 -101 -186q53 -23 77 -72t24 -119v-72q0 -111 -53.5 -170t-159.5 -59t-159.5 59.5t-53.5 169.5zM293 0l565 1434h133l-565 -1434h-133zM774 219v70q0 66 20.5 115t67.5 75q-88 49 -88 183v28q0 111 57.5 170.5t165.5 59.5q109 0 166.5 -59.5t57.5 -170.5v-28 q0 -133 -88 -183q47 -27 67.5 -76t20.5 -114v-70q0 -111 -57.5 -170t-166.5 -59t-166 59.5t-57 169.5zM918 221q0 -59 22.5 -80.5t56.5 -21.5q35 0 57.5 21.5t22.5 80.5v86q0 102 -80 103q-80 0 -79 -103v-86zM918 635q0 -53 22.5 -74.5t56.5 -21.5q35 0 57.5 21.5 t22.5 74.5v51q0 61 -22.5 83t-57.5 22t-57 -21.5t-22 -83.5v-51z" />
<glyph unicode="&#x215d;" horiz-adv-x="1284" d="M76 739v76h135v-84q0 -49 19.5 -68.5t54.5 -19.5t54 19.5t19 68.5v199q0 49 -19.5 69.5t-53.5 20.5q-35 0 -54.5 -20.5t-19.5 -69.5v-27h-135l26 529h377v-132h-250l-10 -217q39 68 125 68q78 0 118 -54.5t40 -154.5v-203q0 -111 -53.5 -170t-159.5 -59t-159.5 59.5 t-53.5 169.5zM293 0l565 1434h133l-565 -1434h-133zM774 219v70q0 66 20.5 115t67.5 75q-88 49 -88 183v28q0 111 57.5 170.5t165.5 59.5q109 0 166.5 -59.5t57.5 -170.5v-28q0 -133 -88 -183q47 -27 67.5 -76t20.5 -114v-70q0 -111 -57.5 -170t-166.5 -59t-166 59.5 t-57 169.5zM918 221q0 -59 22.5 -80.5t56.5 -21.5q35 0 57.5 21.5t22.5 80.5v86q0 102 -80 103q-80 0 -79 -103v-86zM918 635q0 -53 22.5 -74.5t56.5 -21.5q35 0 57.5 21.5t22.5 74.5v51q0 61 -22.5 83t-57.5 22t-57 -21.5t-22 -83.5v-51z" />
<glyph unicode="&#x215e;" horiz-adv-x="1284" d="M72 1305v129h430v-125l-211 -785h-144l209 781h-284zM231 0l566 1434h133l-565 -1434h-134zM774 219v70q0 66 20.5 115t67.5 75q-88 49 -88 183v28q0 111 57.5 170.5t165.5 59.5q109 0 166.5 -59.5t57.5 -170.5v-28q0 -133 -88 -183q47 -27 67.5 -76t20.5 -114v-70 q0 -111 -57.5 -170t-166.5 -59t-166 59.5t-57 169.5zM918 221q0 -59 22.5 -80.5t56.5 -21.5q35 0 57.5 21.5t22.5 80.5v86q0 102 -80 103q-80 0 -79 -103v-86zM918 635q0 -53 22.5 -74.5t56.5 -21.5q35 0 57.5 21.5t22.5 74.5v51q0 61 -22.5 83t-57.5 22t-57 -21.5 t-22 -83.5v-51z" />
<glyph unicode="&#x2212;" d="M51 637v160h709v-160h-709z" />
<glyph unicode="&#x221e;" horiz-adv-x="1228" d="M78 717q0 135 76.5 204.5t214.5 69.5h20q84 0 144.5 -22.5t93.5 -81.5q29 55 87 79.5t142 24.5h25q137 0 211.5 -69.5t74.5 -204.5t-74.5 -205t-211.5 -70h-25q-84 0 -142.5 26t-86.5 79q-33 -59 -93.5 -82t-144.5 -23h-20q-137 0 -214 70t-77 205zM236 717 q0 -47 25.5 -82t109.5 -37h41q74 0 106.5 33t32.5 86t-33 87t-106 34h-41q-41 0 -68 -10.5t-42 -27t-20 -38t-5 -45.5zM696 717q0 -47 26 -82t109 -37h41q74 0 107 33t33 86t-33 87t-107 34h-41q-41 0 -67.5 -10.5t-41.5 -27t-20.5 -38t-5.5 -45.5z" />
<glyph unicode="&#x2248;" d="M16 510q37 55 69 90t60.5 56.5t57 29.5t57.5 8q41 0 80 -19.5t76 -43t70.5 -43t66.5 -19.5q35 0 61.5 26t73.5 91l107 -111q-74 -109 -130.5 -142.5t-113.5 -33.5q-41 0 -80 19.5t-76 43t-70.5 43t-66.5 19.5q-35 0 -61.5 -25.5t-73.5 -90.5zM16 850q37 55 69 90 t60.5 56.5t57 29.5t57.5 8q41 0 80 -19.5t76 -43t70.5 -43t66.5 -19.5q35 0 61.5 26t73.5 91l107 -111q-74 -109 -130.5 -142.5t-113.5 -33.5q-41 0 -80 19.5t-76 43t-70.5 43t-66.5 19.5q-35 0 -61.5 -25.5t-73.5 -90.5z" />
<glyph unicode="&#x25fc;" horiz-adv-x="1433" d="M0 0v1434h1434v-1434h-1434z" />
<glyph horiz-adv-x="512" d="M162 -68h188v-168l-88 -131h-80l54 111h-74v188z" />
<glyph d="M63 344v746q0 174 88.5 267t254.5 93t254 -93t88 -267v-746q0 -174 -88.5 -267t-253.5 -93q-166 0 -254.5 93t-88.5 267zM289 330q0 -78 31.5 -110t85.5 -32q53 0 84.5 32t31.5 110v774q0 78 -31.5 109.5t-84.5 31.5t-85 -31.5t-32 -109.5v-774z" />
<glyph horiz-adv-x="512" d="M31 1094v159q66 0 107.5 14.5t68 39t43 57.5t29.5 70h151v-1434h-225v1094h-174z" />
<glyph horiz-adv-x="755" d="M53 0v176q0 104 33 184t83 146.5t107.5 125t107.5 124t83 143.5t33 182q0 96 -32 130t-85 34t-85 -31.5t-32 -109.5v-154h-213v140q0 174 85 267t251 93t251 -93t85 -267q0 -117 -36 -211.5t-89 -172t-114.5 -142t-110.5 -123t-78 -116t-18 -120.5h426v-205h-652z" />
<glyph horiz-adv-x="782" d="M55 344v119h213v-133q0 -78 32 -110t85 -32t85 33t32 129v113q0 100 -35 141t-113 41h-75v205h88q63 0 99 32.5t36 118.5v80q0 96 -32 130t-85 34t-85 -31.5t-32 -109.5v-92h-213v78q0 174 85 267t251 93t251 -93t85 -267v-37q0 -229 -158 -295q86 -37 122 -114t36 -187 v-113q0 -174 -85 -267t-251 -93t-251 93t-85 267z" />
<glyph horiz-adv-x="813" d="M29 260v205l409 969h246v-969h107v-205h-107v-260h-225v260h-430zM236 465h223v530z" />
<glyph horiz-adv-x="784" d="M57 344v119h213v-133q0 -78 32 -109t85 -31t85 31t32 109v315q0 78 -32 109.5t-85 31.5t-85 -31.5t-32 -109.5v-43h-213l41 832h594v-205h-391l-18 -342q63 104 196 104q125 0 187.5 -84t62.5 -243v-320q0 -174 -85 -267t-251 -93t-251 93t-85 267z" />
<glyph horiz-adv-x="802" d="M63 344v733q0 182 84 277.5t261 95.5q166 0 250.5 -93t84.5 -267v-37h-213v51q0 78 -31.5 109.5t-84.5 31.5q-59 0 -92 -37t-33 -139v-262q59 127 209 127q125 0 187.5 -84t62.5 -244v-262q0 -174 -88.5 -267t-253.5 -93q-166 0 -254.5 93t-88.5 267zM289 330 q0 -78 31.5 -109t85.5 -31q53 0 84.5 31t31.5 109v258q0 78 -31.5 109.5t-84.5 31.5t-85 -31.5t-32 -109.5v-258z" />
<glyph horiz-adv-x="696" d="M20 1229v205h656v-197l-311 -1237h-226l312 1237v-8h-431z" />
<glyph horiz-adv-x="815" d="M55 344v113q0 104 33 181t107 118q-139 76 -140 288v46q0 174 90.5 267t262.5 93t262 -93t90 -267v-46q0 -211 -139 -288q74 -41 106.5 -118t32.5 -181v-113q0 -174 -90 -267t-262 -93t-262.5 93t-90.5 267zM281 350q0 -96 36.5 -129t90.5 -33q53 0 88.5 33t38.5 129v133 q0 86 -34 124t-93 38t-93 -38t-34 -124v-133zM281 1001q0 -86 35.5 -118.5t91.5 -32.5q53 0 90 32.5t37 118.5v80q0 96 -37 130t-90 34t-90 -33.5t-37 -130.5v-80z" />
<glyph horiz-adv-x="802" d="M55 827v263q0 174 88 267t254 93t254 -93t88 -267v-734q0 -182 -84 -277t-260 -95q-166 0 -251 93t-85 267v37h213v-51q0 -78 32 -110t85 -32q59 0 92 37t33 140v262q-59 -127 -209 -127q-125 0 -187.5 84t-62.5 243zM281 846q0 -78 31.5 -109.5t84.5 -31.5t85 31.5 t32 109.5v258q0 78 -31.5 108.5t-85.5 30.5q-53 0 -84.5 -30.5t-31.5 -108.5v-258z" />
</font>
</defs>
</svg>
